<svg xmlns="http://www.w3.org/2000/svg" width="32" height="32" viewBox="0 0 32 32"><path d="m20.996.9-9.842.09C9.797 1 8.51 1.981 8.131 3.275v.002L1.246 26.914c-.549 1.883 1.077 4.073 3.05 4.07l23.684-.007c1.977.003 3.604-2.192 3.051-4.077v-.002l-5.468-18.63v.289a2.317 2.317 0 0 0-2.317-2.317h1.72l-.896-3.056C23.686 1.874 22.371.889 20.998.9z" style="fill:#f2f2f2;fill-opacity:1;stroke:none;stroke-width:2;stroke-linecap:butt;stroke-linejoin:round;stroke-dasharray:none"/><g style="stroke-width:1.16248"><path d="m8.425 7.931 1.67-5.43 11.07-.104 2.089 5.534z" style="fill:#f9f9f9;fill-opacity:1;stroke:none;stroke-width:2.32497;stroke-linecap:butt;stroke-linejoin:round;stroke-dasharray:none" transform="matrix(.85777 0 0 .8627 2.276 2.197)"/><path d="M2.16 29.339 5.919 18.06h19.84l3.342 10.755z" style="fill:#5f8dd3;fill-opacity:1;stroke:none;stroke-width:2.32497;stroke-linecap:butt;stroke-linejoin:round;stroke-dasharray:none" transform="matrix(.85777 0 0 .8627 2.276 2.197)"/><path d="m8.007 8.245 15.038-.21 3.028 9.503-20.676.21Z" style="fill:#ffd42a;fill-opacity:1;stroke:none;stroke-width:2.32497;stroke-linecap:butt;stroke-linejoin:round;stroke-dasharray:none" transform="matrix(.85777 0 0 .8627 2.276 2.197)"/><path d="m21.687 1.249-11.478.104a1 1 0 0 0-.951.718L1.23 29.47a1 1 0 0 0 .961 1.281l27.62-.01a1 1 0 0 0 .958-1.283L24.285 7.491v-.053h-.016l-1.615-5.472a1 1 0 0 0-.967-.717m-.736 2.006 1.234 4.183H9.77l1.2-4.091ZM9.183 9.438h13.592l2.281 7.727H6.92Zm-2.85 9.727h19.313l2.826 9.576-24.947.01z" style="baseline-shift:baseline;display:inline;overflow:visible;vector-effect:none;stroke-width:1.16248;stroke-linecap:round;stroke-linejoin:round;stop-color:#000" transform="matrix(.85777 0 0 .8627 2.276 2.197)"/></g></svg>