<svg xmlns="http://www.w3.org/2000/svg" width="32" height="32" viewBox="0 0 32 32"><path d="M21.68 1.44c-.584-.018-1.138.027-1.242.027l-2.487.002-7.472-.002h-.002c-.261 0-.738-.021-1.239-.026-.5-.004-.998-.02-1.619.131l-.004.002c-.8.196-1.524.714-1.947 1.324s-.592 1.25-.682 1.836c-.18 1.172-.065 2.26-.064 3.002l-.004 19.06c-.001.81.083 1.51.342 2.165.258.656.758 1.257 1.334 1.594 1.152.674 2.14.509 2.912.515h9.974c.375 0 1.532.013 2.633.018.55.002 1.091.003 1.537-.002.446-.006.631.019 1.112-.057.861-.136 1.667-.682 2.101-1.322s.587-1.295.67-1.898c.167-1.207.044-2.356.043-3.04l-.002-12.705c0-1.068-.02-2.143-.002-3.138v-.002c.017-.81.096-1.292-.205-2.016-.3-.724-.552-.828-.867-1.258-.427-.582-.855-1.116-1.244-1.63-.27-.358-.773-1.142-1.309-1.737l-.002-.002c-.92-1.019-1.68-.824-2.265-.842" style="fill:#f2f2f2;stroke-width:1.49332;stroke-dasharray:4.47998,4.47998"/><g style="stroke-width:1.14982"><path d="m30 6.549-5.226-5.005-20.57.005-1.331 1.725.123 26.071 1.483.989h24.218L30 28.842Z" style="fill:#f9f9f9;stroke-width:1.92479;stroke-dasharray:5.77438,5.77438" transform="matrix(.687 0 0 .87616 4.957 2.26)"/><path d="M29 6c-.137-.255-3.588-3.487-3.908-3.646C25.071 5.961 25.007 6.112 29 6" style="fill:#fffefb;fill-opacity:1;fill-rule:evenodd;stroke:none;stroke-width:.00866333" transform="matrix(.687 0 0 .87616 4.957 2.26)"/><path d="M25.384 18.054c-.76-.083-9.312-.08-9.778.023l.009 2.714 9.742-.034z" style="fill:#fed149;fill-opacity:1;fill-rule:evenodd;stroke:none;stroke-width:.00839415" transform="matrix(.687 0 0 .87616 4.957 2.26)"/><path d="M24.462 2.066c.134 1.4-.39 3.14.665 4.201 1.067 1.074 2.758.656 4.23.716.132 1.895.033 4.103.032 6.03-.004 4.956-.066 10.343.01 15.253.016 1-.295 1.614-1.382 1.687-1.863.126-4.181.012-6.093.01H6.6c-.812-.003-2.091.177-2.734-.377-.67-.578-.451-1.73-.456-2.568L3.406 5.516c-.005-4.11-.615-3.469 8.795-3.472 4.009-.002 8.283-.14 12.26.022Zm4.308 3.88c-3.394.102-3.34-.036-3.322-3.325.272.145 3.205 3.092 3.322 3.325M4.412 1.087c-2.574.493-2.062 3.216-2.06 5.171l-.006 21.757c-.005 3.097 1.864 2.946 4.255 2.962h14.5c1.2 0 6.608.064 7.306-.022 2.607-.322 2.038-3.388 2.037-5.254l-.004-14.5c0-1.194-.032-2.433-.003-3.622.047-1.843.02-1.383-1.088-2.567-.582-.623-1.195-1.226-1.787-1.84-.485-.503-1.299-1.443-1.772-1.855-.55-.477-2.512-.299-3.29-.298l-3.626.002H8c-.983 0-2.693-.105-3.589.066" style="fill:#022245;fill-opacity:1;fill-rule:evenodd;stroke:none;stroke-width:.00762746" transform="matrix(.687 0 0 .87616 4.957 2.26)"/><path d="M25.136 23.935c.02.515.065 2.22-.04 2.635h-9.17c-.083-.356-.055-2.165-.02-2.625zm-9.225-.944s-.463.006-.662.166c-.16.128-.18.616-.18.616l.006 3.003c.054.544.34.736.82.756 2.435-.155 6.259.02 8.98-.004 1.22-.01 1.098-1.17 1.1-2.25.004-2.765.328-2.277-4.093-2.274-1.281 0-4.977.074-5.97-.015" style="fill:#022245;fill-opacity:1;fill-rule:evenodd;stroke:none;stroke-width:.00659344" transform="matrix(.687 0 0 .87616 4.957 2.26)"/><path d="M15.906 23.944c-.035.46-.063 2.27.02 2.625h9.17c.105-.416.06-2.12.04-2.635l-9.23.008" style="fill:#fea63d;fill-opacity:1;fill-rule:evenodd;stroke:none;stroke-width:.00659344" transform="matrix(.687 0 0 .87616 4.957 2.26)"/><path d="M25.051 18.139c.021.515.066 2.219-.04 2.635h-9.169c-.084-.356-.056-2.165-.02-2.626zm-9.224-.945s-.463.007-.663.166c-.159.128-.18.616-.18.616l.007 3.004c.054.543.34.735.82.755 2.434-.154 6.258.02 8.98-.003 1.22-.01 1.097-1.171 1.099-2.25.005-2.766.328-2.277-4.093-2.274-1.28 0-4.977.073-5.97-.015m7.101-4.748c.021.516.066 2.22-.04 2.636h-7.25c-.084-.357-.056-2.166-.02-2.626zm-7.305-.944s-.463.007-.662.166c-.16.128-.18.616-.18.616l.006 3.003c.054.544.34.736.82.756 2.434-.155 4.34.02 7.061-.004 1.22-.01 1.097-1.17 1.099-2.249.003-1.7.126-2.17-.805-2.28a6 6 0 0 0-.608-.03c-.604-.003.458.035-.76.035-1.282 0-4.978.074-5.971-.015" style="fill:#022245;fill-opacity:1;fill-rule:evenodd;stroke:none;stroke-width:.00659344" transform="matrix(.687 0 0 .87616 4.957 2.26)"/><path d="M15.61 12.454c-.028.46-.05 2.27.017 2.625h7.354c.084-.415.049-2.12.032-2.635l-7.402.008" style="fill:#fea63d;fill-opacity:1;fill-rule:evenodd;stroke:none;stroke-width:.0059047" transform="matrix(.687 0 0 .87616 4.957 2.26)"/><path d="M9.652 14.693c-.33-.539-1.618-.48-1.662.185-.09 1.356.009 3.689.01 5.122 0 .933-.195 6.394.063 6.835.29.496 1.596.503 1.652-.197.043-.545-.001-1.16-.002-1.71-.004-1.544.132-9.921-.06-10.235" style="fill:#369bcb;fill-opacity:1;fill-rule:evenodd;stroke:none;stroke-width:.00800149" transform="matrix(.687 0 0 .87616 4.957 2.26)"/><path d="M12.94 7.78c-.331-.59-1.619-.526-1.663.204-.089 1.486.01 4.043.01 5.615.001 1.023-.194 7.01.063 7.493.29.543 1.597.551 1.652-.217.043-.597 0-1.27-.002-1.875-.004-1.692.132-10.875-.06-11.22" style="fill:#369bcb;fill-opacity:1;fill-rule:evenodd;stroke:none;stroke-width:.00837783" transform="matrix(.687 0 0 .87616 4.957 2.26)"/></g></svg>