<?xml version="1.0" encoding="UTF-8" standalone="no"?>
<!-- Created with Inkscape (http://www.inkscape.org/) -->

<svg
   width="32"
   height="32"
   viewBox="0 0 32 32"
   version="1.1"
   id="svg1"
   inkscape:version="1.4.2 (ebf0e940, 2025-05-08)"
   sodipodi:docname="doc.svg"
   xmlns:inkscape="http://www.inkscape.org/namespaces/inkscape"
   xmlns:sodipodi="http://sodipodi.sourceforge.net/DTD/sodipodi-0.dtd"
   xmlns="http://www.w3.org/2000/svg"
   xmlns:svg="http://www.w3.org/2000/svg">
  <sodipodi:namedview
     id="namedview1"
     pagecolor="#ffffff"
     bordercolor="#000000"
     borderopacity="0.25"
     inkscape:showpageshadow="2"
     inkscape:pageopacity="0.0"
     inkscape:pagecheckerboard="0"
     inkscape:deskcolor="#d1d1d1"
     inkscape:document-units="px"
     inkscape:zoom="11.445679"
     inkscape:cx="19.395966"
     inkscape:cy="20.57545"
     inkscape:window-width="1440"
     inkscape:window-height="842"
     inkscape:window-x="0"
     inkscape:window-y="30"
     inkscape:window-maximized="1"
     inkscape:current-layer="layer1"
     showgrid="true">
    <inkscape:grid
       id="grid1"
       units="px"
       originx="0"
       originy="0"
       spacingx="1"
       spacingy="1"
       empcolor="#0099e5"
       empopacity="0.30196078"
       color="#0099e5"
       opacity="0.14901961"
       empspacing="8"
       enabled="true"
       visible="true" />
  </sodipodi:namedview>
  <defs
     id="defs1" />
  <g
     inkscape:label="Layer 1"
     inkscape:groupmode="layer"
     id="layer1">
    <path
       id="rect1"
       style="fill:#cccccc;fill-opacity:0.967532;stroke-width:1.78816;stroke-linecap:round;stroke-linejoin:round"
       transform="matrix(1,0,0,1.013288,0,-0.40448841)"
       d="M 24.123047,4.1757812 18.507812,5.7246094 A 0.99626191,0.99626191 0 0 0 17.867187,5.0839844 H 11.130859 A 0.99626191,0.99626191 0 0 0 10.261719,5.953125 0.99626191,0.99626191 0 0 0 9.390625,5.0839844 H 2.65625 A 0.99626191,0.99626191 0 0 0 1.6601562,6.0800781 V 29.443359 A 0.99626191,0.99626191 0 0 0 2.65625,30.439453 h 6.734375 a 0.99626191,0.99626191 0 0 0 0.871094,-0.869141 0.99626191,0.99626191 0 0 0 0.86914,0.869141 h 6.736328 a 0.99626191,0.99626191 0 0 0 0.996094,-0.996094 V 14.119141 l 4.332031,15.591796 a 0.99626191,0.99626191 0 0 0 1.22461,0.69336 l 6.492187,-1.791016 a 0.99626191,0.99626191 0 0 0 0.69336,-1.228515 L 25.347656,4.8691406 A 0.99626191,0.99626191 0 0 0 24.123047,4.1757812 Z" />
    <g
       id="g21"
       transform="matrix(0.71102101,0,0,0.70858259,480.51438,-275.13849)"
       style="stroke-width:1.07363">
      <path
         id="path90-9"
         d="m -665.05068,403.7587 h -5.05223 c -0.34893,0 -0.63181,-0.28289 -0.63181,-0.63149 0,-0.34893 0.28288,-0.63149 0.63181,-0.63149 h 5.05223 c 0.34894,0 0.63148,0.28256 0.63148,0.63149 0,0.3486 -0.28254,0.63149 -0.63148,0.63149 z m 0,3.05267 h -5.05223 c -0.34893,0 -0.63181,-0.28287 -0.63181,-0.63147 0,-0.34894 0.28288,-0.63183 0.63181,-0.63183 h 5.05223 c 0.34894,0 0.63148,0.28289 0.63148,0.63183 0,0.3486 -0.28254,0.63147 -0.63148,0.63147 z m 0,3.05269 h -5.05223 c -0.34893,0 -0.63181,-0.28288 -0.63181,-0.63182 0,-0.3486 0.28288,-0.63148 0.63181,-0.63148 h 5.05223 c 0.34894,0 0.63148,0.28288 0.63148,0.63148 0,0.34894 -0.28254,0.63182 -0.63148,0.63182 z m 0,3.05202 h -5.05223 c -0.34893,0 -0.63181,-0.28222 -0.63181,-0.63149 0,-0.34894 0.28288,-0.63148 0.63181,-0.63148 h 5.05223 c 0.34894,0 0.63148,0.28254 0.63148,0.63148 0,0.34927 -0.28254,0.63149 -0.63148,0.63149 z m -2.52628,13.26288 c -1.39508,0 -2.52627,-1.13121 -2.52627,-2.52628 0,-1.39541 1.13119,-2.52628 2.52627,-2.52628 1.39507,0 2.52628,1.13087 2.52628,2.52628 0,1.39507 -1.13121,2.52628 -2.52628,2.52628 z m -4.73665,-29.70588 v 32.97172 h 9.4733 v -32.97172 h -9.4733"
         style="fill:#008000;fill-opacity:1;fill-rule:nonzero;stroke:none;stroke-width:0.0358154" />
      <path
         id="path91-5"
         d="m -653.13016,403.7587 h -5.05257 c -0.34859,0 -0.63148,-0.28289 -0.63148,-0.63149 0,-0.34893 0.28289,-0.63149 0.63148,-0.63149 h 5.05257 c 0.3486,0 0.63149,0.28256 0.63149,0.63149 0,0.3486 -0.28289,0.63149 -0.63149,0.63149 z m 0,3.05267 h -5.05257 c -0.34859,0 -0.63148,-0.28287 -0.63148,-0.63147 0,-0.34894 0.28289,-0.63183 0.63148,-0.63183 h 5.05257 c 0.3486,0 0.63149,0.28289 0.63149,0.63183 0,0.3486 -0.28289,0.63147 -0.63149,0.63147 z m 0,3.05269 h -5.05257 c -0.34859,0 -0.63148,-0.28288 -0.63148,-0.63182 0,-0.3486 0.28289,-0.63148 0.63148,-0.63148 h 5.05257 c 0.3486,0 0.63149,0.28288 0.63149,0.63148 0,0.34894 -0.28289,0.63182 -0.63149,0.63182 z m 0,3.05202 h -5.05257 c -0.34859,0 -0.63148,-0.28222 -0.63148,-0.63149 0,-0.34894 0.28289,-0.63148 0.63148,-0.63148 h 5.05257 c 0.3486,0 0.63149,0.28254 0.63149,0.63148 0,0.34927 -0.28289,0.63149 -0.63149,0.63149 z m -2.52629,13.26288 c -1.39508,0 -2.52628,-1.13121 -2.52628,-2.52628 0,-1.39541 1.1312,-2.52628 2.52628,-2.52628 1.39507,0 2.52629,1.13087 2.52629,2.52628 0,1.39507 -1.13122,2.52628 -2.52629,2.52628 z m -4.73665,-29.70588 v 32.97172 h 9.47329 v -32.97172 h -9.47329"
         style="fill:#552200;fill-opacity:1;fill-rule:nonzero;stroke:none;stroke-width:0.0358154" />
      <path
         id="path92-0"
         d="m -638.38348,425.03241 c -1.34471,0.37229 -2.73644,-0.41599 -3.10872,-1.76036 -0.37263,-1.3447 0.41564,-2.73644 1.76036,-3.10872 1.34436,-0.37262 2.73643,0.41565 3.10872,1.76036 0.37228,1.34436 -0.416,2.73643 -1.76036,3.10872 z m -5.97428,-12.10732 c -0.0377,0.0107 -0.0757,0.0173 -0.11341,0.0207 -0.2979,0.0263 -0.58112,-0.16246 -0.66351,-0.46103 -0.0934,-0.33591 0.10375,-0.68385 0.44001,-0.77692 l 4.86908,-1.34838 c 0.33458,-0.0934 0.68385,0.10375 0.77727,0.44034 0.0931,0.33626 -0.10408,0.68419 -0.44001,0.77693 z m -1.59155,-3.38194 c -0.0931,-0.33593 0.10408,-0.68386 0.44002,-0.77693 l 4.86907,-1.34837 c 0.33458,-0.0951 0.68385,0.10375 0.77727,0.44001 0.0931,0.33591 -0.10408,0.68385 -0.44001,0.77692 l -4.86942,1.34871 c -0.0377,0.0103 -0.0757,0.017 -0.11342,0.0203 -0.2979,0.0263 -0.58112,-0.16213 -0.66351,-0.46069 z m -0.81495,-2.9416 c -0.0931,-0.33592 0.10408,-0.68419 0.43999,-0.77727 l 4.8691,-1.34836 c 0.33525,-0.0934 0.68385,0.10407 0.77725,0.44 0.0931,0.33626 -0.10409,0.68419 -0.44,0.77727 l -4.86941,1.34836 c -0.0377,0.0104 -0.0757,0.0174 -0.11342,0.0207 -0.2979,0.0261 -0.5808,-0.16246 -0.66351,-0.46069 z m -0.81463,-2.94193 c -0.0931,-0.33593 0.10408,-0.68386 0.43999,-0.77693 l 4.8691,-1.34871 c 0.33458,-0.0947 0.68385,0.10408 0.77725,0.44034 0.0931,0.33593 -0.10408,0.68386 -0.43999,0.77693 l -4.86909,1.34838 c -0.038,0.0107 -0.0761,0.0174 -0.11374,0.0207 -0.29758,0.0263 -0.5808,-0.16246 -0.66352,-0.46069 z m 5.83214,-8.51956 -9.12968,2.52828 8.79978,31.7758 9.12968,-2.52828 -8.79978,-31.7758"
         style="fill:#000080;fill-opacity:1;fill-rule:nonzero;stroke:none;stroke-width:0.0358154" />
    </g>
  </g>
</svg>
