<?xml version="1.0" encoding="UTF-8" standalone="no"?>
<!-- Created with Inkscape (http://www.inkscape.org/) -->

<svg
   width="32"
   height="32"
   viewBox="0 0 32 32"
   version="1.1"
   id="svg1"
   xml:space="preserve"
   xmlns="http://www.w3.org/2000/svg"
   xmlns:svg="http://www.w3.org/2000/svg"><defs
     id="defs1" /><g
     id="layer1"><path
       id="rect2-2-6"
       style="font-variation-settings:'wght' 700;fill:#f9f9f9;stroke:none;stroke-width:4.99999;stroke-linecap:round"
       d="M 15.558824,3.5 A 4.4117645,4.6296287 0 0 0 11.147059,8.1296296 V 12.759259 H 8.5000001 v 3.703704 h 2.6470589 v 7.040292 h 3.529412 v -7.040292 h 1.764705 V 23.87037 A 4.4117645,4.6296296 0 0 0 20.852941,28.5 H 23.5 V 27.574074 24.796296 H 20.852941 A 0.88235292,0.92592594 0 0 1 19.970589,23.87037 v -4.53559 -2.871817 h 2.647058 V 12.759259 H 19.970589 16.441176 14.676471 V 8.1296296 a 0.88235292,0.92592594 0 0 1 0.882353,-0.9259259 0.88235292,0.92592594 0 0 1 0.882352,0.9259259 v 1.8518519 h 3.529413 V 8.1296296 A 4.4117645,4.6296287 0 0 0 15.558824,3.5 Z" /></g></svg>
