<?xml version="1.0" encoding="UTF-8" standalone="no"?>
<!-- Created with Inkscape (http://www.inkscape.org/) -->

<svg
   width="32"
   height="32"
   viewBox="0 0 32 32"
   version="1.1"
   id="svg1"
   xml:space="preserve"
   xmlns="http://www.w3.org/2000/svg"
   xmlns:svg="http://www.w3.org/2000/svg"><defs
     id="defs1" /><g
     id="layer1"><rect
       style="fill:none;fill-opacity:1;stroke:none;stroke-width:1.8;stroke-linecap:round;stroke-linejoin:round"
       id="rect2"
       width="31.429163"
       height="31.165064"
       x="0.26411065"
       y="0.39616591" /><g
       id="g1"
       transform="matrix(0.84139044,0,0,0.81690247,2.5849088,2.9187378)"
       style="stroke-width:1.20619"><path
         style="fill:#ffffff;fill-opacity:1;stroke:none;stroke-width:2.17115;stroke-linecap:round;stroke-linejoin:round"
         d="m 4.5827247,9.4131642 c 0,0 0.6812158,-1.1456812 2.5700415,-2.7248633 1.8888257,-1.5791822 4.0695728,-2.159527 5.1091188,-1.2695386 1.183751,1.0134468 1.145681,2.4152198 1.114717,3.4060791 -0.03097,0.9908594 -0.295475,2.5306796 -0.481261,3.1499666 -0.185786,0.619287 -0.831103,2.52459 -0.831103,2.52459 0,0 1.2739,-1.706324 2.326688,-2.975863 1.052788,-1.269538 1.636858,-2.0374318 1.903322,-2.2639258 0.266463,-0.2264941 0.532927,-0.4396649 0.706128,-0.3330795 0.173201,0.1065854 0.289668,0.4627217 0.289668,0.7025389 0,0.2398172 -0.176349,3.3794624 -0.189669,4.0056514 -0.01332,0.62619 -0.02006,3.019253 -0.02006,3.019253 0,0 2.609862,-3.695813 3.50487,-4.824301 0.895008,-1.128489 2.490457,-3.2103553 2.996332,-3.7745995 0.505874,-0.5642442 2.062409,-2.3348036 2.062409,-2.3348036 0,0 1.731646,-2.5099139 2.529371,-3.210355 0.797725,-0.7004411 1.848386,-1.4397956 2.393174,-1.61490585 0.544787,-0.17511027 0.544787,-0.0972835 0.661527,0.0583701 0.116741,0.15565355 0.05837,0.38913395 -0.252937,0.62261425 -0.311307,0.2334804 -1.926213,1.284142 -2.509914,1.7900162 -0.5837,0.5058741 -1.770559,1.342512 -2.64611,2.4710005 -0.875552,1.1284884 -2.06241,5.7786389 -1.71219,7.9188759 0.350221,2.140236 1.031205,4.864174 2.548828,6.36234 1.517622,1.498165 0.914464,1.031204 0.914464,1.031204 0,0 0.875552,0.719898 0.972835,1.517623 0.09728,0.797724 -0.622614,1.790016 -0.914464,1.965126 -0.291851,0.17511 -0.661528,0.544788 -1.323056,0.447504 -0.661528,-0.09728 -1.537079,-0.895008 -1.94567,-1.517622 -0.40859,-0.622614 -1.634362,-3.910796 -1.906756,-4.922544 -0.272394,-1.011749 -0.910409,-3.871883 -1.007692,-4.29993 -0.09728,-0.428048 -0.188512,-0.811196 -0.432103,-0.972835 -0.150478,-0.09985 -0.383876,-0.01946 -0.53953,0.214023 -0.155653,0.233481 -1.651259,2.484638 -2.507354,3.690953 0,0 -1.972947,3.177261 -2.517735,4.013899 -0.544787,0.836638 -0.603157,0.933922 -1.050661,0.836638 -0.447504,-0.09728 -0.544788,-0.369677 -0.642071,-0.778268 -0.09728,-0.40859 -0.285263,-5.783748 -0.214024,-6.344828 0.08237,-0.648764 -0.262769,-1.078036 -0.861243,-0.292538 -0.621267,0.815414 -1.403935,1.959582 -1.726498,2.512547 -0.544787,0.933921 -2.1791497,3.755142 -2.6461104,4.65015 -0.4669608,0.895008 -1.9456697,3.755143 -2.315347,4.475041 -0.3696772,0.719897 -1.3425121,2.393173 -1.7900161,3.015788 -1.2177918,1.694318 -1.996367,1.211035 -1.4333323,-0.551051 0.1009816,-0.316034 0.4310568,-1.588195 1.3513372,-1.644281 0.7058647,-0.04302 3.9653351,-5.594377 5.9412586,-10.826106 0.896627,-2.374035 1.04155,-2.748684 1.167499,-4.35281 C 11.440887,9.2924357 10.755263,8.5652485 10.433473,8.1543441 9.770921,7.3083068 8.3506055,7.0829244 7.2176648,7.9492908 6.0847241,8.8156572 5.1538232,10.052976 4.4873875,11.45249 3.8209518,12.852005 3.1988914,14.328368 3.1988914,14.328368 Z"
         id="path1" /><rect
         style="fill:#ffffff;fill-opacity:1;stroke:none;stroke-width:2.17115;stroke-linecap:round;stroke-linejoin:round"
         id="rect1"
         width="21.821512"
         height="3.3108501"
         x="3.9128227"
         y="1.2039455"
         ry="0" /><rect
         style="fill:#ffffff;fill-opacity:1;stroke:none;stroke-width:2.17115;stroke-linecap:round;stroke-linejoin:round"
         id="rect1-4"
         width="21.821512"
         height="3.3108501"
         x="6.348238"
         y="27.775856"
         ry="0" /><rect
         style="fill:#ffffff;fill-opacity:1;stroke:none;stroke-width:2.17115;stroke-linecap:round;stroke-linejoin:round"
         id="rect1-4-6"
         width="19.037388"
         height="3.3108501"
         x="6.7508698"
         y="-4.6217003"
         ry="0"
         transform="rotate(90)" /><rect
         style="fill:#ffffff;fill-opacity:1;stroke:none;stroke-width:2.17115;stroke-linecap:round;stroke-linejoin:round"
         id="rect1-4-6-8"
         width="20.391825"
         height="3.3108501"
         x="5.7270079"
         y="-31.142225"
         ry="0"
         transform="rotate(90)" /></g></g></svg>
