<svg xmlns="http://www.w3.org/2000/svg" width="32" height="32" viewBox="0 0 32 32"><path d="M10.41 1.666a1.96 1.96 0 0 0-1.422.473L5.064 5.543l-.074.025-2.463 2.137a1.955 1.955 0 0 0-.197 2.756l4.953 5.727-.197.187-.002.023-.018.018a2 2 0 0 0-.425.596L4.4 21.875l-.044.03-.857 1.724.053-.1s-.28.467-.424 1.114c-.144.646-.188 1.85.691 2.78.87.922 1.996.953 2.63.88.632-.073 1.112-.285 1.112-.285h.004l1.764-.743.043-.05 5.137-2.069-.272-.336q.247.023.492-.015l5.075 5.869a1.955 1.955 0 0 0 2.76.197l2.462-2.139q.039-.07.073-.144l3.865-3.354c.814-.707.903-1.94.197-2.755l-5.258-6.08 2.338-2.227h-.006l.028-.008.468-.457 2.147-2.045a1.96 1.96 0 0 0 .568-1.793 9 9 0 0 0-.472-1.588c-.306-.847-.802-1.917-1.7-2.908-1.159-1.28-2.542-1.893-3.482-2.234a10 10 0 0 0-1.027-.352 1.96 1.96 0 0 0-1.883.465l-1.02.998-1.025.932-2.54 2.418-4.55-5.264a1.96 1.96 0 0 0-1.338-.67m12.606 11.625c.13.185.292.345.478.475l-.3-.045a2 2 0 0 1-.073-.145c-.03-.065-.105-.285-.105-.285m-13.54 6.072q.053.009.105.014l-.062.043z" style="fill:#e6e6e6;stroke-width:1.8;stroke-linecap:round;stroke-linejoin:round"/><g style="stroke-width:1.13722"><path d="M-3.234 7.518H.474v30.381h-3.708z" style="fill:#acf;stroke-width:2.047;stroke-linecap:round;stroke-linejoin:round" transform="matrix(.66408 -.57622 .57519 .66527 1.7 2.18)"/><path d="M.255 7.552h6.21v30.275H.255z" style="fill:#59f;stroke-width:2.047;stroke-linecap:round;stroke-linejoin:round" transform="matrix(.66408 -.57622 .57519 .66527 1.7 2.18)"/><path d="M-3.176 9.804h1.477v1.074h-1.477zm-.035 3.009h1.477v1.074h-1.477zm.017 3.09h1.477v1.074h-1.477zm.02 2.845h3.092v1.074h-3.092zm-.038 3.045h1.477v1.074h-1.477zm-.035 3.009h1.477v1.074h-1.477zm.017 3.09h1.477v1.074H-3.23zm.019 2.845H.021v1.074h-3.232zm6.436-18.573h1.266V32.97H3.225z" style="fill:#0055d4;stroke-width:2.047;stroke-linecap:round;stroke-linejoin:round" transform="matrix(.66408 -.57622 .57519 .66527 1.7 2.18)"/></g><path d="M22.3 4.53c2.934.832 4.8 3.05 5.296 5.58L13.851 23.203l-7.032 2.83c-.946.045-1.997.214-1.51-1.446l3.174-6.894z" style="fill:#fca;stroke-width:1.8;stroke-linecap:round;stroke-linejoin:round"/><path d="M6.175 22.639s.886-.015 1.773.85.692 1.848.692 1.848l-1.763.742s-1.033.432-1.567-.133c-.558-.592.008-1.582.008-1.582z" style="fill:#1a1a1a;stroke-width:1.8;stroke-linecap:round;stroke-linejoin:round"/><path d="m22.39 7.56 2.223 2.506-12.055 10.61s.166-.667-.342-1.202S11 18.996 11 18.996z" style="fill:navy;stroke-width:1.8;stroke-linecap:round;stroke-linejoin:round"/><path d="M20.252 6.462 8.502 17.655s1.022-.737 1.803.086.69 1.303.69 1.303l11.32-11.315Zm5.23 5.65L13.822 23.24s.74-.974-.042-1.797c-.78-.823-1.264-.755-1.264-.755L24.19 9.835Z" style="fill:red;stroke-width:1.8;stroke-linecap:round;stroke-linejoin:round"/><path d="M19.69 7s1.827.957 2.94 2.198 2.337 3.43 2.337 3.43l2.587-2.53s-.286-2.03-1.66-3.548c-1.376-1.518-3.585-1.978-3.585-1.978Z" style="fill:#d4aa00;stroke-width:1.8;stroke-linecap:round;stroke-linejoin:round"/></svg>