<svg xmlns="http://www.w3.org/2000/svg" width="32" height="32" viewBox="0 0 32 32"><path d="M15.857 1.521c-.983.01-1.997.296-2.732.967-.285.26-.465.567-.64.873-.074.001-.095-.002-.17 0-.597.018-1.204-.147-2.217.592-.109.08-.303.108-1.12.055-.816-.054-2.21-.178-3.527.697-.978.651-1.68 1.723-1.799 2.936a2 2 0 0 0-.007.175l-.006 10.166v.002c0 1.718.003 3.432 0 5.143-.001.49-.076 1.46-.035 2.477s.059 2.173 1.007 3.294c.886 1.047 2.178 1.427 3.205 1.514s1.941-.011 2.758-.012c1.839 0 3.672-.008 5.502-.01q2.79-.001 5.574-.01c.624 0 1.55.097 2.6-.015 1.05-.111 2.405-.535 3.271-1.719.447-.61.694-1.35.754-1.935s.012-.983.012-1.316v-.002l.002-15.25c0-.66.126-1.487-.021-2.524s-.828-2.345-2.034-3.049c-1.003-.585-2.011-.615-2.779-.6-.71.015-1.237.055-1.568.036-.094-.076-.104-.106-.338-.237-.98-.545-1.526-.401-2.078-.404h-.063c-.218-.38-.466-.75-.81-1.017-.816-.636-1.796-.836-2.74-.827m3.782 6.077.312.127-.353-.051.033.056c-.027-.006-.06-.022-.09-.033l.027-.027-.123-.018.116-.04.025.04zm-4.723 12.304c0 .013.027.086.027.09l-.066-.049zm8.97 6.182.046.043.002.053-.082-.047c.007-.012.023-.033.035-.049" style="fill:#f2f2f2;fill-rule:evenodd;stroke-width:.0058408"/><g style="stroke-width:1.13801"><path d="M-221.837 454.38c.694-.2 7.679-.048 8.989-.047.74 0 6.274-.168 6.702.165.5.39.256 1.177-.284 1.377-.433.162-7.89.067-9.02.068-.74.001-6.228.17-6.66-.158-.522-.398-.422-1.206.273-1.405m18.685-4.164c1.033-.002 2.182-.045 3.202-.002 1.311.055 1.298 1.362.37 1.651-.826.258-11.048.063-12.795.064-2.683 0-7.05.098-9.588.01-1.246-.044-1.354-1.332-.346-1.662.587-.193 16.268-.056 19.157-.06zm-3.47-4.894c.134-1.807.024-8.53.023-10.86-.005-8.04-.746-7.452 3.447-7.443 1.635.003 3.395-.22 3.41 1.998.035 4.95-.23 11.906.005 16.334.75-.014 1.044-.148 1.523.468.046 1.35-1.308 1.001-2.336 1l-16.555.002c-1.22.002-5.75.15-6.594-.078-.355-.314-.573-.644-.205-1.108.323-.406.852-.271 1.31-.312.29-7.812-1.156-7.565 3.36-7.556 2.346.005 3.168-.292 3.155 2.371-.005.781-.144 4.822.099 5.14.202.154.841.175 1.047-.005.222-.19.05-1.42.05-1.824q-.002-1.005-.007-2.01-.01-2.07 0-4.139c.023-5.007-.534-4.928 3.343-4.936 3.986-.008 3.46.308 3.462 4.818 0 2.627-.116 5.548.019 8.158zm-14.07-26.795c-1.35-.045-2.754-.035-4.106-.026-3.697.027-3.523 2.535-3.517 4.73l.005 20.573v8.277c0 2.145-.582 5.626 1.267 6.974 1.07.779 2.422.531 3.669.53l20.576-.03c5.074-.006 9.059.957 9.019-3.447-.012-1.382-.006-2.763-.006-4.145 0-2.72-.006-5.44-.005-8.16.005-5.517-.006-11.036-.005-16.554.005-7.588 1.13-9.34-7.637-8.695-.078 2.065.464 4.535-2.543 4.643-2.302.082-4.782.003-7.102 0-2.36-.003-4.882.088-7.22.002-2.987-.111-2.24-2.715-2.398-4.672" style="fill:#fffefb;fill-opacity:1;fill-rule:evenodd;stroke:none;stroke-width:.0108351" transform="matrix(.56084 0 0 .51813 134.361 -210.29)"/><path d="M-220.693 418.527c.158 1.957-.589 4.56 2.398 4.672 2.338.086 4.86-.005 7.22-.002 2.32.003 4.8.082 7.102 0 3.007-.108 2.465-2.578 2.543-4.644 8.767-.644 7.64 1.108 7.637 8.696 0 5.518.007 11.037.005 16.555 0 2.72.005 5.44.005 8.159 0 1.382-.007 2.763.006 4.145.04 4.404-3.944 3.441-9.019 3.446l-20.576.032c-1.246 0-2.6.248-3.668-.531-1.85-1.348-1.267-4.83-1.268-6.974-.005-2.76 0-5.518 0-8.277l-.005-20.573c-.006-2.195-.18-4.703 3.517-4.73 1.352-.01 2.757-.019 4.106.026zm9.025-4.664c.874-.166 1.648-.062 2.368.496.94.729.47 1.369.654 2.332.256 1.334 4.035.236 5.184.83.853.44.538 1.708.54 2.516.007 1.221.079 1.649-1.288 1.657l-12.068-.005c-3.24-.009-3.011.25-2.894-3.2.067-1.984 2.955-.75 4.899-1.165 1.438-.307-.456-2.876 2.604-3.46zm-3.42 2.033c-1.13.023-3.661-.207-4.506.46-2.47 1.95-5.692-.408-8.4 1.54a4.27 4.27 0 0 0-1.778 3.094l-.01 19.621c0 3.311.006 6.622 0 9.933-.005 2.391-.487 7.005.97 8.87 1.798 2.3 4.862 1.663 8.159 1.66 3.271-.002 6.543-.014 9.814-.016q4.967-.005 9.932-.02c2.688-.006 6.159.61 7.869-1.918.973-1.439.741-2.564.74-4.207l.005-29.438c0-3.087.665-6.007-2.063-7.73-1.935-1.221-4.534-.39-6.683-.632-.947-.108-.947-.478-1.615-.88-.912-.551-3.321-.232-4.483-.356-.156-2.412-1.67-3.567-4.059-3.542-2.472.027-3.498 1.32-3.89 3.561" style="fill:#022245;fill-opacity:1;fill-rule:evenodd;stroke:none;stroke-width:.0108351" transform="matrix(.56084 0 0 .51813 134.361 -210.29)"/><path d="m-213.389 433.789 3.877.033.05 11.55-3.895.01c-.147-.552-.15-10.69-.032-11.593m8.199-5.245c.78-.038 3.363-.119 3.994.072v16.678c-.54.152-3.282.101-3.98.038zm-15.941 10.707 3.628-.044.04 6.114-3.655.035zm14.509 6.07-1.446.019c-.134-2.61-.016-5.531-.018-8.158 0-4.51.524-4.826-3.462-4.818-3.877.008-3.32-.071-3.344 4.936q-.008 2.07 0 4.139c0 .67.008 1.34.007 2.01 0 .403.172 1.635-.05 1.824-.206.18-.846.159-1.047.004-.243-.317-.103-4.358-.1-5.139.014-2.663-.808-2.366-3.154-2.371-4.516-.01-3.07-.256-3.36 7.556-.459.04-.987-.095-1.31.312-.368.464-.15.794.205 1.108.844.228 5.374.08 6.594.078l16.554-.001c1.029 0 2.383.35 2.337-1.001-.479-.616-.774-.482-1.523-.469-.235-4.427.03-11.383-.005-16.333-.016-2.218-1.775-1.996-3.41-1.998-4.193-.01-3.452-.597-3.447 7.443 0 2.33.11 9.053-.023 10.86" style="fill:#022245;fill-opacity:1;fill-rule:evenodd;stroke:none;stroke-width:.0108351" transform="matrix(.56084 0 0 .51813 134.361 -210.29)"/><path d="M-211.32 416.332c.924-.482 1.319.947.646 1.277-.9.442-1.566-.797-.646-1.277m-.348-2.469c-3.06.585-1.167 3.154-2.605 3.461-1.944.414-4.832-.818-4.899 1.165-.117 3.45-.346 3.192 2.894 3.2l12.068.006c1.367-.01 1.294-.436 1.289-1.658-.005-.808.312-2.075-.541-2.515-1.149-.594-4.928.503-5.184-.83-.184-.964.285-1.604-.654-2.332-.72-.56-1.494-.663-2.368-.496m6.49 31.468c.698.063 3.44.114 3.98-.038v-16.678c-.63-.19-3.214-.11-3.994-.072l.012 16.788" style="fill:#fea63d;fill-opacity:1;fill-rule:evenodd;stroke:none;stroke-width:.0108351" transform="matrix(.56084 0 0 .51813 134.361 -210.29)"/><path d="M-213.389 433.789c-.119.902-.115 11.041.032 11.594l3.895-.01-.05-11.551z" style="fill:#fed149;fill-opacity:1;fill-rule:evenodd;stroke:none;stroke-width:.0108351" transform="matrix(.56084 0 0 .51813 134.361 -210.29)"/><path d="M-222.31 450.276c-1.007.33-.899 1.618.347 1.662 2.538.09 6.905-.009 9.588-.01 1.747 0 11.969.195 12.795-.063.928-.29.941-1.596-.37-1.652-1.02-.043-2.169.001-3.202.002-2.889.004-18.57-.132-19.157.06m.472 4.105c-.695.199-.795 1.007-.272 1.405.431.328 5.92.159 6.659.158 1.13 0 8.587.094 9.02-.068.54-.2.784-.987.284-1.377-.428-.333-5.962-.165-6.702-.165-1.31 0-8.295-.153-8.989.047" style="fill:#369bcb;fill-opacity:1;fill-rule:evenodd;stroke:none;stroke-width:.0108351" transform="matrix(.56084 0 0 .51813 134.361 -210.29)"/><path d="m-221.118 445.356 3.656-.035-.04-6.114-3.63.044z" style="fill:#fea63d;fill-opacity:1;fill-rule:evenodd;stroke:none;stroke-width:.0108351" transform="matrix(.56084 0 0 .51813 134.361 -210.29)"/><path d="M-211.32 416.332c-.92.48-.253 1.719.646 1.277.673-.33.278-1.76-.646-1.277" style="fill:#022245;fill-opacity:1;fill-rule:evenodd;stroke:none;stroke-width:.0108351" transform="matrix(.56084 0 0 .51813 134.361 -210.29)"/></g></svg>