<svg xmlns="http://www.w3.org/2000/svg" width="32" height="32" viewBox="0 0 32 32"><path d="M7.592 1.496c-.304.009-.73.05-1.203.254a2.1 2.1 0 0 0-.645.434C4.581 3.332 3.425 4.479 2.266 5.602l.132-.12c-.607.496-.873 1.272-.931 1.704-.058.43-.032.646-.031.632v.053c-.01 5.72-.003 11.434-.006 17.147v.056c.009.356-.033.897.043 1.615l.004.04c.235 1.905 1.717 3.255 3.607 3.365.812.053 1.495.018 2.037.031h.047c3.647.008 7.287-.004 10.918.008.197.003.518.017.992-.117.117-.033.248-.234.385-.3l1.168.009c1.197.616 2.492.926 3.764.814l.08-.01c1.584-.2 3.12-.924 4.248-2.2 1.747-1.943 2.317-4.725 1.32-7.208l-.014-.035c-.479-1.136-1.25-2.266-2.443-3.076-.354-.25-.8-.262-1.19-.438.022-.225.2-.373.16-.619l.026.318c-.013-3.747-.008-7.498-.014-11.255v-.04c-.005-.274.1-1.042-.326-2.033-.578-1.38-1.872-2.495-3.64-2.445-4.733-.003-9.463.004-14.192.006a2 2 0 0 0-.185.008c.107-.01-.124-.03-.633-.016M20.64 28.805l-.135.209c.034-.047.034-.107.064-.155.019-.029.053-.024.07-.054" style="fill:#f2f2f2;stroke-width:1.2"/><path d="m4.016 7.29 3.83-3.274 14.95-.124 1.36 1.483-.124 22.24-18.595-.123-1.607-1.483Z" style="fill:#e6e6e6;stroke:none;stroke-width:1.2"/><ellipse cx="23.661" cy="23.631" rx="4.448" ry="4.417" style="fill:#ffd42a;stroke:none;stroke-width:1.19583"/><path d="M726.98 2638.075c26.55-.587 53.055.587 79.606.44-.046-27.133.314-54.267.314-81.4-23.758 29.613-53.37 53.907-79.92 80.96m93.51-149.133c15.885-6.84 34.786-1.76 51.84-3.28 207-.094 414.045-.36 621.045-.227 31.907-.907 60.39 22.186 72.136 50.8 7.65 17.146 6.21 36.32 6.57 54.626.225 163.574 0 327.107.585 490.68 1.845 11.707-9 22.507-20.475 21.96-11.565.774-21.87-11.026-20.205-22.32.18-172.52-.092-345.106.134-517.626.045-13.227-7.74-26.054-19.35-32.267-11.384-6.747-25.064-4.68-37.664-5-209.655-.227-419.355-.72-629.055.227.225 40.946.54 81.906.315 122.813 1.35 15.427-12.42 29.96-28.035 28.347-39.33-1.134-78.66-.053-118.035-.227-.45 232.013.674 464.08.54 696.147.45 35.96-.99 72.04 2.115 107.96 3.87 17.226 21.825 28.933 39.15 27.76 188.955-.134 377.91.187 566.864.093 14.626-1.853 25.246 17.68 16.695 29.333-6.03 10.667-19.395 11.614-30.24 11.44-158.984-.507-318.014 0-476.998-.36-28.531-.68-57.152.853-85.636-1.08-35.46-2.027-67.32-31.373-71.685-66.693-2.206-21.013-.855-42.16-1.396-63.227.136-249.026-.224-498.013.226-747.04.315-11.573-1.755-25.12 8.325-33.346 51.074-49.454 101.655-99.547 152.235-149.494" style="fill:#060708;fill-opacity:1;fill-rule:nonzero;stroke:none;stroke-width:.133333" transform="translate(-11.584 -53.473)scale(.02295)"/><path d="M872.6 2695.488c11.34-12.773 34.92-6.786 38.79 9.854 13.68 39.16 28.845 77.813 42.84 116.866 2.926-3.413 5.22-7.2 6.796-11.333 12.42-37.173 25.83-73.987 39.645-110.573 5.714-16.507 34.514-14.44 37.754 2.52-.088 15.973-7.783 30.653-12.734 45.546-17.865 44.867-31.5 91.48-51.84 135.307-4.816 13.187-22.5 15.173-33.03 8.107-6.705-6.574-9.45-15.974-13.23-24.347-19.08-49.72-37.44-99.76-55.8-149.76-2.34-7.16-6.03-16.334.81-22.187m231.299 121.014c17.236.44 34.47.213 51.75-.094-8.775-22.546-16.56-45.453-25.874-67.773-9.181 22.413-18.541 44.773-25.876 67.867m2.116-114.04c4.904-14.534 23.175-17.64 36-12.827 12.104 7.253 15.884 21.786 20.924 34.026 18.36 50.667 40.41 99.987 58.05 150.88 6.256 18.907-24.3 29.347-35.37 15.667-7.694-10.627-10.53-23.813-15.525-35.733-27.135-.453-54.313-.76-81.404.627-5.31 12.733-8.236 27.36-17.865 37.76-11.16 6.253-27.99 3.466-33.12-9.4 2.294-20.747 12.734-39.427 19.529-58.907 16.425-40.64 31.23-81.947 48.781-122.093m110.34-3.147c5.624-10.613 19.215-7.827 29.16-8.6 40.32.28 80.73-.44 121.05.453 18.134 6.614 14.715 36.987-3.645 40.507-16.11 1.307-32.265-.227-48.376-.133-.9 50.533.495 101.106-.9 151.6-4.725 20.333-40.094 17.053-39.734-4.28-.81-48.96-.045-97.96.18-146.92-17.056-.68-34.065-.4-51.12-.76-8.055-8.2-14.535-21.294-6.615-31.867M815.27 2997.488c43.156-1.213 86.4.133 129.6-.093 13.412-1.8 26.686 12.373 22.14 25.56-2.475 9.72-12.374 16.027-22.184 15.347-42.075.04-84.106.626-126.135.32-21.376-1.174-23.31-35.827-3.42-41.134m247.859.987c12.825-2.48 26.012-1.08 39.016-1.254 103.185.76 206.37 0 309.554.667 21.6-.853 27.362 35.773 5.535 39.867-115.56 1.44-231.21.64-346.77.506-21.96.894-27.629-32.76-7.334-39.786m-248.265 110.973c44.685-1.707 89.505-.227 134.28-.853 17.865-3.427 29.385 22.4 16.29 34.2-7.38 8.946-19.621 7.333-29.88 7.6-39.06-.32-78.12.493-117.09-.174-21.06-1.226-24.39-36-3.6-40.773m252.089.227c88.201-1.894 176.445 0 264.69-.547 15.435-2.973 28.755 16.48 20.611 29.653-3.736 7.787-12.016 13.24-20.835 11.8-88.696-1.08-177.436 1.16-266.085-.946-20.385-4.28-18.9-37.934 1.619-39.96m423.675 87.253c-36.224 11.333-69.12 34.373-91.484 65.16-31.95 45-37.71 106.067-17.82 157.187 24.209 65.24 91.845 111.827 161.685 109.12 65.61-1.174 126.944-45.814 150.39-106.734 24.75-64.306 6.84-143.013-45.27-188.6-42.165-36.986-103.41-51.88-157.5-36.133m-3.96-40.507c57.466-14.8 121.05-2.293 169.336 31.96 33.885 22.76 58.32 57.374 74.025 94.627 29.295 72.987 11.7 161.054-40.725 219.147-32.58 37.08-79.74 59.907-128.43 66.066-47.925 4.227-97.876-6.84-137.52-34.693-39.105-27.626-70.696-67.32-84.33-113.627-16.56-54.226-11.475-115.826 17.46-165.066 27.945-48.32 75.734-85.32 130.185-98.414m-681.797 73.934c3.645-6.294 10.71-9.174 17.776-8.494 100.575.174 201.194.72 301.815.36 15.48.494 31.185-1.08 46.574 1.294 8.325 3.16 10.62 12.293 13.905 19.626-3.96 10.48-11.52 21.827-24.48 19.974-112.59 0-225.18.28-337.725-.134-16.244 1.44-27.314-19.746-17.865-32.626" style="fill:#060708;fill-opacity:1;fill-rule:nonzero;stroke:none;stroke-width:.133333" transform="translate(-11.584 -53.473)scale(.02295)"/><path d="M1467.59 3294.128c-6.344 10.12-3.51 23.493-2.654 34.867.27 10.36 15.884 13.733 19.664 3.746 1.71-11.8 1.53-23.853-.044-35.6-4.05-5.226-11.521-8.373-16.965-3.013m-12.69-33.747c26.236-12.96 63.585 2.107 69.12 31.947 3.42 21.6 4.185 46.933-11.205 64.48-21.959 28.213-75.42 19.44-84.239-16.293-5.176-28.254-5.716-67.72 26.324-80.134m129.825-2.213c10.394-7.28 25.83.547 28.53 12.24-1.26 13.373-10.125 24.173-17.145 35.053-28.486 46.307-61.606 89.734-87.796 137.52-6.299 13.28-22.995 28.174-37.44 16.427-13.77-11.2-1.439-28.08 6.256-38.88 28.62-45.093 60.93-87.787 87.165-134.413 6.075-9.72 11.07-20.88 20.43-27.947m-773.416 78.253 2.43-1.08c117.182-.226 234.45.454 351.63-.133 15.706.187 24.796 23.36 13.05 34.253-7.74 9.44-21.015 5.707-31.545 6.48-109.439.4-218.835 0-328.23.134-20.34-.454-25.605-31.28-7.334-39.654m781.784 48.2c-5.173 10.534-3.69 22.907-3.87 34.334-1.934 9.853 14.4 16.6 19.035 7.386 4.456-10.853 3.33-23.186 2.115-34.52-.99-8.32-10.71-12.24-17.28-7.2m-8.864-32.853c19.35-5.76 43.2-2.027 56.205 14.627 13.455 15.746 9.764 38.026 8.595 57.066-1.35 18.4-14.175 35.454-31.725 41.4-20.25 6.2-45 .44-57.69-17.2-10.89-16.333-10.305-37.026-9-55.8 1.259-18.72 15.885-34.96 33.615-40.093" style="fill:#060708;fill-opacity:1;fill-rule:nonzero;stroke:none;stroke-width:.133333" transform="translate(-11.584 -53.473)scale(.02295)"/></svg>