<svg xmlns="http://www.w3.org/2000/svg" width="32" height="32" viewBox="0 0 32 32"><path d="M15.11 1.559a553 553 0 0 0-5.262.007c-.732.006-1.356.015-1.836.028q-.359.008-.617.023c-.174.01-.22-.012-.58.069l-.004.002c-1.495.339-2.467 1.572-2.692 2.958-.055.338-.036.372-.043.569q-.01.295-.017.74c-.01.594-.017 1.389-.022 2.322-.01 1.867-.01 4.29-.008 6.725.006 4.872.027 9.824.028 10.402 0 1.118-.124 2.163.588 3.362.355.599.993 1.115 1.652 1.361.66.246 1.319.302 2.049.291.685-.01 4.723.007 8.56.018 1.919.005 3.808.008 5.262.003a193 193 0 0 0 1.81-.011q.348-.006.583-.014c.157-.005.185.01.478-.033.875-.13 1.723-.677 2.178-1.334s.606-1.325.685-1.926c.159-1.2.025-2.31.024-2.95v-.001l-.002-17.56c0-.624.388-2.093-.723-3.592-.75-1.011-2.17-1.438-2.933-1.443-.254-.001-.465.008-.657.01h-.002c-.673.008-4.676-.019-8.5-.027" style="fill:#f2f2f2;fill-rule:evenodd;stroke-width:.0059313"/><g style="stroke-width:1.23677"><path d="M-269.697 310.508c6.026-.794 11.486 3.485 12.352 9.455.868 5.978-3.498 11.597-9.421 12.454-6.094.882-11.604-3.39-12.435-9.454-.842-6.152 3.389-11.651 9.504-12.456m-14.687 31.22 32.372.031c.13-2.958.006-6.152.005-9.107l.007-27.315c-.005-1.243.305-2.857-.813-3.666-.816-.591-3.196-.347-4.259-.35l-18.21.003c-2.85 0-6.287-.168-9.064.024z" style="fill:#5da69c;fill-opacity:1;fill-rule:evenodd;stroke:none;stroke-width:.0117753" transform="matrix(.4869 0 0 .52109 148.114 -152.867)"/><path d="M-289.313 343.282c.845-.261 8.917-.075 10.483-.076l26.383-.02c.753.142.704 3.118-.897 3.604-.912.277-28.17.1-31.635.101-1.28.001-3.864.276-4.839-.532-1.238-1.025-1.086-2.587.505-3.077m4.966-41.934c2.777-.192 6.215-.025 9.064-.025l18.21-.002c1.063.003 3.443-.241 4.26.35 1.117.81.809 2.423.812 3.665l-.007 27.315c0 2.956.125 6.15-.005 9.108l-32.372-.032zm-6.408 40.999c.142-3.804.009-7.764.028-11.587l.005-22.94c.008-4.522-.983-7.203 4.916-6.46l-.01 40.378c-.732.105-1.918.013-2.71.021-1.14.014-1.273.217-2.227.588zm1.37-42.376c-1.396.295-2.456 1.472-2.697 2.86-.256 1.476-.08 36.932-.078 39.278.005 4.218.142 6.234 5.052 6.168 3.287-.045 32.5.143 33.795-.036 3.641-.501 2.776-5.434 2.77-8.494l-.004-33.7c0-1.566.267-3.535-.76-4.83-1.257-1.583-2.509-1.372-4.353-1.353-3.218.034-32.236-.207-33.727.108" style="fill:#022245;fill-opacity:1;fill-rule:evenodd;stroke:none;stroke-width:.0117753" transform="matrix(.4869 0 0 .52109 148.114 -152.867)"/><path d="M-269.962 323.404c.619-.464 1.627-1.626 2.24-2.23l3.314-3.43c.592-.378 1.412-.088 1.288.692-.072.452-6.184 6.624-6.538 6.723-.948.262-1.981-1.165-2.608-1.792-.573-.574-2.19-1.759-1.021-2.445 1.148-.516 2.415 2.028 3.325 2.482m.33-11.387c-5.34.822-8.911 5.468-8.083 10.88.802 5.24 5.564 8.845 10.842 8.007 5-.794 8.95-5.673 8.058-10.813-.9-5.174-5.511-8.892-10.816-8.074" style="fill:#fed149;fill-opacity:1;fill-rule:evenodd;stroke:none;stroke-width:.0117753" transform="matrix(.4869 0 0 .52109 148.114 -152.867)"/><path d="M-290.755 342.347c.954-.371 1.088-.574 2.226-.588.793-.009 1.978.084 2.71-.021l.01-40.378c-5.898-.743-4.907 1.938-4.915 6.46l-.005 22.94c-.02 3.823.114 7.783-.028 11.587" style="fill:#5da69c;fill-opacity:1;fill-rule:evenodd;stroke:none;stroke-width:.0117753" transform="matrix(.4869 0 0 .52109 148.114 -152.867)"/><path d="M-289.313 343.282c-1.591.49-1.743 2.052-.505 3.077.975.808 3.558.533 4.839.532 3.465-.002 30.723.176 31.635-.1 1.601-.487 1.65-3.463.897-3.604l-26.383.019c-1.566 0-9.638-.185-10.483.076" style="fill:#fffefb;fill-opacity:1;fill-rule:evenodd;stroke:none;stroke-width:.0117753" transform="matrix(.4869 0 0 .52109 148.114 -152.867)"/><path d="M-269.631 312.017c5.305-.818 9.916 2.9 10.816 8.074.893 5.14-3.059 10.02-8.058 10.813-5.278.838-10.04-2.767-10.842-8.008-.828-5.411 2.742-10.057 8.084-10.88m-.066-1.51c-6.115.805-10.346 6.304-9.504 12.456.83 6.065 6.341 10.336 12.435 9.454 5.923-.857 10.289-6.476 9.421-12.454-.866-5.97-6.326-10.249-12.352-9.456" style="fill:#022245;fill-opacity:1;fill-rule:evenodd;stroke:none;stroke-width:.0117753" transform="matrix(.4869 0 0 .52109 148.114 -152.867)"/><path d="M-269.962 323.404c-.91-.454-2.177-2.998-3.325-2.482-1.168.686.448 1.871 1.02 2.445.628.627 1.661 2.054 2.609 1.792.354-.099 6.466-6.271 6.538-6.723.124-.78-.696-1.07-1.288-.692l-3.314 3.43c-.613.604-1.621 1.766-2.24 2.23" style="fill:#022245;fill-opacity:1;fill-rule:evenodd;stroke:none;stroke-width:.0117753" transform="matrix(.4869 0 0 .52109 148.114 -152.867)"/></g></svg>