<svg xmlns="http://www.w3.org/2000/svg" width="32" height="32" viewBox="0 0 32 32"><path d="M8.717 1.586c-2.335.002-4.442 1.79-4.598 4.256a4.7 4.7 0 0 0 .303 1.98v.002c.09.229.229.358.346.553-.334.086-.667.155-1.002.35-.793.46-1.39 1.193-1.746 1.931-.552 1.14-.399 2.142-.399 2.83 0 .143-.006.717-.008 1.258a57 57 0 0 0 .008 1.053c.003.089-.012.094.03.342a1.54 1.54 0 0 0 1.326 1.273c.316.04.199.014.271.016l.273.004a640 640 0 0 0 6.982.006c.233-.003.18.019.538-.016a1.54 1.54 0 0 0 .584-.494c-.025.242-.152.526-.152.74 0 .872.215 1.292.463 1.793.035.072.073.123.11.19-.425.118-.859.26-1.27.572-.147.11-.399.286-.663.576a4.5 4.5 0 0 0-1.136 2.388c-.103.77-.036 1.382-.036 1.989v1.65c0 .089-.008.14.004.342.006.101.008.253.108.516.1.262.385.644.71.828.652.366.877.21.975.205s.128-.008.192-.008h7.435l1.653.006c.4 0 .797 0 1.105-.002q.23-.002.393-.006c.054-.002.1-.003.164-.008.032-.002.064-.005.138-.015.038-.006.082-.01.184-.038.051-.013.23-.08.23-.08l.223-.123.358-.324a1.5 1.5 0 0 0 .267-.508c.138-.45.075-.401.08-.504q.008-.151.01-.322c.004-.23.004-.502.002-.78-.003-.554-.012-1.157-.012-1.269 0-.74.132-1.743-.427-2.861h.002a4.53 4.53 0 0 0-1.819-1.91c-.255-.143-.589-.209-.896-.301.04-.073.114-.14.15-.213v-.002c.384-.772.461-1.573.461-2.2 0-.084-.054-.14-.059-.222a1.5 1.5 0 0 0 .448.39c.566.072.985.02 1.18.02.518 0 2.175.008 3.712.01.769.001 1.51 0 2.073-.004a45 45 0 0 0 .94-.017c.038-.002.074-.003.126-.008s.01.047.389-.084a1.54 1.54 0 0 0 1.011-1.195c.072-.421.027-.295.03-.41l.006-.422c.002-.33.002-.75.002-1.174-.002-.849.006-1.505-.022-1.955a4.19 4.19 0 0 0-3.121-3.825c.345-.613.605-1.31.605-2.164a4.62 4.62 0 0 0-2.627-4.168c-.688-.325-1.423-.435-2.056-.435-1.632 0-2.91.87-3.664 1.963-.141.204-.28.44-.395.683-.322.688-.428 1.42-.428 2.06 0 .801.167 1.29.465 1.878h.002c.06.118.17.218.24.334-.402.099-.784.051-1.17.295-.898.567-1.61 1.451-1.906 2.533v.002q-.045.16-.094.402c-.031.162-.092.248-.06.696a1.5 1.5 0 0 0 .342.6c-.2-.028-.352-.163-.559-.163-.17 0-.326.067-.494.086a1.5 1.5 0 0 0 .297-.517c.036-.488-.031-.557-.067-.733a4 4 0 0 0-.119-.48l-.002-.002c-.259-.812-.705-1.56-1.472-2.141-.35-.265-.876-.605-1.54-.787-.005-.002-.012 0-.017-.002.294-.555.598-1.116.674-1.754v-.002c.102-.853-.07-1.46-.299-2.039v-.002a4.6 4.6 0 0 0-1.201-1.717c-.906-.8-2.025-1.196-3.084-1.195m15.996 6.78c-.227.135-.203.157-.244.21l-.047.02z" style="fill:#f2f2f2;fill-opacity:1;fill-rule:evenodd;stroke:none;stroke-width:.0088588"/><path d="M14.46 21.83c-.11-.173-.193-.323-.311-.505-.14-.216-.141-.317-.272-.324-.06-.003-.13-.001-.193-.002-.717-.003-1.398.06-1.974.494-.166.125-.307.226-.451.384-.97 1.059-.77 1.978-.77 3.341v1.652c0 .465-.049.345.45.345h7.437c.112 0 3.219.024 3.246-.01.05-.164.011-2.086.011-2.426 0-.826.07-1.506-.263-2.173a2.83 2.83 0 0 0-2.115-1.569 4 4 0 0 0-.564-.042c-.63 0-.542-.048-.7.222-.044.077-.083.139-.125.21-.09.153-.168.287-.257.433-.305.502-.742 1.197-1.025 1.696l-.446.746c-.045.075-.02.062-.087.083z" style="fill:#fc0;fill-opacity:1;fill-rule:evenodd;stroke:none;stroke-width:.0088588"/><path d="M10.902 15.935c.13-.483.444-1.07.721-1.472a5.4 5.4 0 0 1 2.406-1.969c.104-.044.202-.065.291-.127.01-.134-.073-.497-.116-.632-.166-.52-.51-1.061-.937-1.385-.293-.222-.585-.41-1.02-.53a2.4 2.4 0 0 0-.68-.097c-.168 0-.645-.035-.757.017-.059.048-.452.723-.52.841l-1.279 2.11c-.056.091-.178.364-.27.41-.064-.05-.23-.346-.276-.425a12 12 0 0 0-.264-.427l-1.056-1.707c-.063-.102-.478-.805-.541-.819-.93 0-1.359-.031-2.057.374-.542.315-.86.705-1.135 1.272-.304.628-.243 1.392-.243 2.16 0 .351-.023 2.22.007 2.402.183.023 7.446.032 7.726.004" style="fill:navy;fill-opacity:1;fill-rule:evenodd;stroke:none;stroke-width:.0088588"/><path d="M23.382 13.1c-.066-.032-.05-.03-.093-.104l-.754-1.256c-.095-.15-.189-.296-.27-.44-.091-.165-.18-.295-.275-.457-.048-.083-.096-.152-.142-.235a6 6 0 0 0-.132-.224c-.489-.79-.293-.66-.785-.66-.724 0-1.183.04-1.781.418-.605.381-1.058.953-1.246 1.64-.037.137-.11.455-.102.585.09.063.2.088.306.134 1.01.435 1.54.909 2.216 1.72.119.14.25.361.356.521.18.272.447.847.54 1.193.268.034.703.008.989.008 1.067 0 6.595.032 6.737-.017.028-.166.018-3.29-.002-3.612-.077-1.258-1.106-2.379-2.272-2.55-.383-.055-.747-.04-1.153-.04-.082.016-1.021 1.593-1.076 1.687-.047.082-1.004 1.645-1.061 1.69" style="fill:#ff2a2a;fill-opacity:1;fill-rule:evenodd;stroke:none;stroke-width:.0088588"/><path d="M11.785 6.4c.05-.41-.067-.953-.201-1.291a2.84 2.84 0 0 0-.79-1.135c-2.041-1.806-4.983-.35-5.131 2.007a3.04 3.04 0 0 0 .2 1.325c.157.403.33.635.593.935a3.14 3.14 0 0 0 2.055.998c.835.052 1.434-.172 2.062-.613.186-.13.45-.388.582-.568.408-.562.542-.92.63-1.658" style="fill:#d38d5f;fill-opacity:1;fill-rule:evenodd;stroke:none;stroke-width:.0088588"/><path d="M20.329 6.337c0 .359.155.897.299 1.181.323.636.822 1.184 1.506 1.466 1.205.5 2.456.29 3.4-.624a3.08 3.08 0 0 0 .89-2.128c0-1.282-.73-2.298-1.746-2.778-.481-.228-.885-.288-1.4-.288-1.015 0-1.925.612-2.4 1.3a3 3 0 0 0-.269.462c-.22.47-.28.886-.28 1.409" style="fill:#a05a2c;fill-opacity:1;fill-rule:evenodd;stroke:none;stroke-width:.0088588"/><path d="M13.02 17.712c0 .329.175.853.304 1.112.085.174.16.295.265.447l.703.699a3.064 3.064 0 0 0 3.935-.336c.24-.239.426-.518.579-.824.276-.555.297-.93.297-1.516 0-.862-.642-1.901-1.353-2.344-.524-.326-1.036-.5-1.699-.5a2.97 2.97 0 0 0-1.915.681c-.319.26-.606.596-.81 1.012-.289.59-.307.95-.307 1.569" style="fill:#502d16;fill-opacity:1;fill-rule:evenodd;stroke:none;stroke-width:.0088588"/></svg>