<svg xmlns="http://www.w3.org/2000/svg" width="32" height="32" viewBox="0 0 32 32"><path d="M20.012 1.271c-2.818 0-5.622 1.146-7.621 3.122s-3.168 4.76-3.168 7.564c0 1.209.28 2.388.685 3.527-.163.124-.321.237-.48.354-.038.002-.126-.02-.158-.018-.422.024-.636-.067-.063.069a2 2 0 0 0-.256-.043c-.804-.086-1.775.076-2.558.611l.31-.174c-1.346.61-2.81 1.161-4.308 1.781a2.05 2.05 0 0 0-.967 2.963c1.569 2.57 3.077 5.268 4.896 7.916l.051.07.787 1.048a2.05 2.05 0 0 0 2.434.658c1.516-.638 3.306-1.204 5.066-2.172a2 2 0 0 0 .31-.211c.157-.128.4-.316.676-.639.15-.174.241-.608.385-.92 1.138.046 2.235.131 3.455.055l.04-.002c2.177-.178 3.663-1.305 4.724-1.902l.059-.035c1.78-1.082 3.305-2.346 4.703-3.61a2.05 2.05 0 0 0 .674-1.613c-.03-.646-.291-1.398-.708-2.113 1.072-1.696 1.82-3.596 1.82-5.6 0-2.804-1.168-5.589-3.167-7.564-2-1.976-4.803-3.121-7.621-3.122" style="fill:#f2f2f2;stroke-width:1.674;stroke-dasharray:5.022,5.022"/><g style="stroke-width:1.20872" transform="matrix(.83228 0 0 .82239 2.706 2.761)"><circle cx="20.836" cy="11.091" r="10.5" style="fill:#fc0;stroke-width:2.0234;stroke-dasharray:6.0702,6.0702"/><g style="fill:#666;stroke-width:1.20872"><path d="M18.413 3.31a8 8 0 0 1 2.545-.417 8 8 0 0 1 2.585.432l.376-1.016a9 9 0 0 0-2.961-.497c-1.023 0-2.005.17-2.92.483zm10.477 7.516a7.9 7.9 0 0 1-.683 3.222l1.017.377a9 9 0 0 0 .747-3.6 9 9 0 0 0-.293-2.29l-1.022.378c.152.613.234 1.253.234 1.913M13.871 7.26a7.97 7.97 0 0 1 3.082-3.282l-.381-1.03a9.06 9.06 0 0 0-3.722 3.933zM25 4a7.96 7.96 0 0 1 3.116 3.406l1.019-.378a9.06 9.06 0 0 0-3.753-4.058zm-11.975 6.826c0-.717.096-1.41.274-2.07l-1.02-.378a9 9 0 0 0-.335 2.448c0 1.337.29 2.606.813 3.747l1.019-.377a7.9 7.9 0 0 1-.75-3.37m10.477 7.514c-.8.271-1.655.418-2.545.418a8 8 0 0 1-2.505-.404l-.376 1.016c.904.305 1.873.47 2.88.47a9 9 0 0 0 2.922-.485zm3.91-2.88.02-.053a8 8 0 0 1-2.47 2.265l.38 1.03a9.06 9.06 0 0 0 3.103-2.858zM16.99 17.695a8 8 0 0 1-2.373-2.103l-1.054.39a9.1 9.1 0 0 0 3.046 2.741z" style="fill:#666;fill-opacity:1;fill-rule:nonzero;stroke:none;stroke-width:.00819221" transform="translate(-.121 .265)"/><path d="M17.176 9.951q.547 0 .782-.203.24-.204.24-.67 0-.46-.24-.66-.235-.199-.782-.199h-.733v1.732zm-.733 1.203v2.555h-1.741V6.958h2.659q1.334 0 1.953.447.624.448.624 1.416 0 .67-.325 1.099-.321.43-.972.633.357.081.637.37.285.285.575.869l.945 1.917h-1.854l-.823-1.678q-.25-.506-.507-.691-.253-.186-.678-.186Zm6.937 1.823v2.658h-1.62v-6.99h1.62v.741q.334-.443.741-.651.407-.213.936-.213.936 0 1.538.746.601.742.601 1.913t-.601 1.918q-.602.741-1.538.741-.529 0-.936-.208-.407-.212-.741-.655m1.076-3.279q-.52 0-.8.384-.276.38-.276 1.1 0 .718.276 1.103.28.38.8.38t.791-.38q.276-.38.276-1.104 0-.723-.276-1.103-.271-.38-.791-.38" aria-label="Rp" style="font-weight:700;fill:#666;stroke-width:1.56157;stroke-dasharray:4.68472,4.68472" transform="translate(-.121 .265)"/></g><path d="M15.222 15.921c-1.576.08-3.196.381-4.541 1.079a40 40 0 0 1-2.028 1.505c-.16-.435-.938-.104-1.367-.206-.529-.057-1.008.035-1.423.322-1.717.787-3.501 1.467-5.252 2.2 1.918 3.178 3.708 6.414 5.81 9.511l.946 1.273c1.955-.832 4.024-1.507 5.854-2.526.332-.275.748-.638.766-1.03a3.2 3.2 0 0 0-.508-1.47c2.187.087 4.387.248 6.575.11 1.802-.15 3.23-1.18 4.668-1.999 1.943-1.195 3.656-2.624 5.278-4.11-.037-.831-.317-1.69-1.12-2.238-.49-.32-.94-.829-1.633-.694-.527-.029-1.042-.024-1.45.294-.442.224-.875.46-1.33.666.182-.954-.78-1.749-1.824-1.987-2.2-.519-4.51-.61-6.782-.711-.213 0-.426.008-.639.011" style="fill:#500;fill-opacity:1;fill-rule:nonzero;stroke:none;stroke-width:.00516509"/><path d="M15.543 17.336h.399q6.297.333 6.498.983v.318q-.273.982-.654.982-2.613 0-5.59.212 0 1.406 3.249 1.724 2.468 0 7.15-2.48h.381q.909.56.908.968-3.303 3.04-6.878 4.762-.799.44-2.342.439-2.63 0-6.497-.227-.162.499-1.034 1.406.78 1.12.78 1.406-.072.226-4.156 1.845-.78-.953-5.063-8.225 3.61-1.466 4.029-1.724h.38q.4.787.4.862.853 0 4.03-2.495 1.796-.756 4.01-.756" style="fill:#e9c6af;fill-opacity:1;fill-rule:nonzero;stroke:none;stroke-width:.00516509"/></g></svg>