<svg xmlns="http://www.w3.org/2000/svg" width="32" height="32" viewBox="0 0 32 32"><path d="M11.594 1.518c-2.235.04-4.514-.008-6.832.01a3.8 3.8 0 0 0-1.533.3c-.759.256-1.298.955-1.434 1.315-.147.387-.18.563-.115.394a1.8 1.8 0 0 0-.123.656L1.55 18.627a1.8 1.8 0 0 0 .107.615c.086.24.428 1.166 1.387 1.645a3.4 3.4 0 0 0 1.55.386c.385-.005.588-.014.553-.017a2 2 0 0 0 .18.008h7.026l-.004 6.484a1.8 1.8 0 0 0 .107.615c.105.292.464 1.273 1.48 1.776a3.64 3.64 0 0 0 1.688.418c.433-.006.687-.021.701-.02a2 2 0 0 0 .18.008h11.1a1.8 1.8 0 0 0 .88-.229c-.164.092.006.041.434-.171.406-.202 1.109-.94 1.252-1.747.33-1.072.185-1.89.197-2.03a2 2 0 0 0 .006-.163c-.007-4.094.016-8.203-.01-12.318a2 2 0 0 0-.011-.196c-.107-.927-.636-1.597-1.004-1.974-.369-.377-.624-.593-.663-.639a2 2 0 0 0-.132-.142c-.804-.787-1.625-1.689-2.584-2.565l-.045-.04c-.712-.61-1.435-.654-1.934-.643h-.004c-2.214.04-4.476.01-6.748.01q0-.347-.002-.692a2 2 0 0 0-.011-.195c-.1-.867-.596-1.49-.924-1.827-.328-.335-.535-.514-.537-.517a2 2 0 0 0-.133-.143c-.665-.651-1.356-1.41-2.174-2.158l-.045-.041c-.683-.585-1.367-.617-1.816-.607Z" style="fill:#f2f2f2;stroke-width:.00501329"/><g style="stroke-width:1.18368"><path d="M16.469-1.861c-4.774.087-9.552-.015-14.327.02C1.416-1.856.679-1.92.045-1.5c-.624.136-.635.92-.828 1.417l-.014 29.945c.207.57.403 1.15 1.008 1.399.914.555 2.07.202 3.088.302h19.44c.537-.296 1.35-.323 1.419-1.072.478-1.027.15-2.206.246-3.306-.012-7.136.026-14.276-.019-21.41-.15-1.292-1.444-1.966-2.212-2.894-1.493-1.45-2.91-2.99-4.448-4.386-.341-.29-.82-.366-1.256-.357M14.11 2.9c.029 1.334-.055 2.69.04 4.01.255.508.314 1.21 1 1.285.917.487 2.002.155 3 .252.457.154 1.559-.337 1.533.3v18.071H3.924V2.9z" style="fill:#338000;fill-opacity:1;fill-rule:nonzero;stroke:none;stroke-width:.0104391" transform="matrix(.47854 0 0 .48195 3.778 4.29)"/><path d="M1.924 28.78V.938c0-.021.017-.038.038-.038h12.674c.021 0 .038.017.038.038v6.814c0 .022.017.038.039.038h6.933c.02 0 .038.017.038.038V28.78a.04.04 0 0 1-.038.038H1.962a.04.04 0 0 1-.038-.038" style="fill:#cfa;fill-opacity:1;fill-rule:nonzero;stroke:none;stroke-width:.0104391" transform="matrix(.47854 0 0 .48195 3.778 4.29)"/><path d="m21.005 5.7-4.111-.005a.043.043 0 0 1-.042-.041l-.004-4.113c0-.037.045-.054.07-.029l4.117 4.117c.026.026.007.07-.03.07" style="fill:#fff;fill-opacity:1;fill-rule:nonzero;stroke:none;stroke-width:.0104391" transform="matrix(.47854 0 0 .48195 3.778 4.29)"/><path d="M18.348 19.963a.065.065 0 0 1-.065.064H5.76a.065.065 0 0 1-.066-.064v-.654c0-.036.03-.065.066-.065h12.523c.036 0 .065.03.065.065zm.057 2.319a.06.06 0 0 1-.06.06H5.749a.06.06 0 0 1-.06-.06v-.642a.06.06 0 0 1 .06-.061h12.596a.06.06 0 0 1 .06.06zm-3.107 2.331a.08.08 0 0 1-.08.08l-9.437-.034a.08.08 0 0 1-.08-.08l.002-.594a.08.08 0 0 1 .08-.08l9.438.034a.08.08 0 0 1 .08.079z" style="fill:#12110f;fill-opacity:1;fill-rule:nonzero;stroke:none;stroke-width:.0104391" transform="matrix(.47854 0 0 .48195 3.778 4.29)"/><path d="M9.613 15.606H6.528L6.042 17H4.059l2.833-7.65h2.352L12.078 17h-1.983Zm-2.593-1.42h2.096l-1.045-3.043Zm8.876-1.444q.62 0 .886-.23.272-.231.272-.76 0-.522-.272-.747-.266-.226-.886-.226h-.83v1.963zm-.83 1.363V17h-1.973V9.35h3.013q1.511 0 2.213.507.707.507.707 1.604 0 .758-.369 1.245-.363.487-1.101.717.405.093.722.42.323.323.651.984L20 17h-2.1l-.934-1.901q-.281-.574-.573-.784-.287-.21-.77-.21Z" aria-label="AR" style="font-weight:700;font-size:10.4944px;fill:#250;stroke-width:1.73287;stroke-dasharray:5.19859,5.19859" transform="matrix(.47854 0 0 .48195 3.778 4.29)"/></g><g style="stroke-width:1.18368"><path d="M60.17-.762c-4.774.088-9.552-.015-14.327.02-.726-.014-1.463-.077-2.097.343-.624.136-.635.92-.828 1.417l-.014 29.945c.207.57.403 1.15 1.008 1.398.914.556 2.07.202 3.088.303h19.44c.537-.296 1.35-.323 1.419-1.072.478-1.027.15-2.207.246-3.306-.012-7.136.026-14.277-.019-21.41-.15-1.292-1.444-1.966-2.212-2.894-1.493-1.45-2.91-2.99-4.448-4.386-.341-.29-.82-.367-1.256-.358M57.812 4c.029 1.334-.055 2.69.04 4.01.255.508.314 1.209 1 1.284.917.488 2.002.156 3 .253.456.154 1.559-.337 1.533.3v18.071h-15.76V4z" style="fill:#c83737;fill-opacity:1;fill-rule:nonzero;stroke:none;stroke-width:.0104391" transform="matrix(.57095 0 0 .57501 -10.3 10.001)"/><path d="M45.625 29.88V2.037c0-.021.017-.038.038-.038h12.674c.021 0 .038.017.038.038v6.814c0 .021.017.038.039.038h6.933c.02 0 .037.017.037.038V29.88a.04.04 0 0 1-.037.04H45.663a.04.04 0 0 1-.038-.04" style="fill:#ff8080;fill-opacity:1;fill-rule:nonzero;stroke:none;stroke-width:.0104391" transform="matrix(.57095 0 0 .57501 -10.3 10.001)"/><path d="m64.706 6.8-4.111-.005a.043.043 0 0 1-.042-.041L60.55 2.64c0-.037.045-.055.07-.029l4.117 4.117c.026.025.007.07-.03.07" style="fill:#fff;fill-opacity:1;fill-rule:nonzero;stroke:none;stroke-width:.0104391" transform="matrix(.57095 0 0 .57501 -10.3 10.001)"/><path d="M62.049 21.063c0 .035-.03.064-.065.064H49.46a.065.065 0 0 1-.065-.064v-.654c0-.036.03-.065.065-.065h12.524c.036 0 .065.03.065.065zm.057 2.318a.06.06 0 0 1-.06.06H49.45a.06.06 0 0 1-.06-.06v-.642a.06.06 0 0 1 .06-.06h12.596a.06.06 0 0 1 .06.06zM59 25.713a.08.08 0 0 1-.08.08l-9.438-.034a.08.08 0 0 1-.08-.08l.002-.595a.08.08 0 0 1 .08-.08l9.438.034a.08.08 0 0 1 .08.08z" style="fill:#12110f;fill-opacity:1;fill-rule:nonzero;stroke:none;stroke-width:.0104391" transform="matrix(.57095 0 0 .57501 -10.3 10.001)"/><path d="M53.314 16.706H50.23l-.486 1.394H47.76l2.833-7.65h2.352l2.834 7.65h-1.983zm-2.593-1.42h2.096l-1.045-3.043Zm6.073-4.837h3.274q1.46 0 2.24.651.783.646.783 1.845 0 1.204-.784 1.855-.779.645-2.24.645h-1.3V18.1h-1.973zm1.972 1.43v2.137h1.092q.574 0 .886-.277.313-.282.313-.794 0-.513-.313-.79-.312-.276-.886-.276z" aria-label="AP" style="font-weight:700;font-size:10.4944px;fill:maroon;stroke-width:1.73287;stroke-dasharray:5.19859,5.19859" transform="matrix(.57095 0 0 .57501 -10.3 10.001)"/></g></svg>