<svg xmlns="http://www.w3.org/2000/svg" width="32" height="32" viewBox="0 0 32 32"><path d="M24.2.803c-.398.006-.712.031-.796.031H23.4Q17.187.809 12.48.816h-.006l-.003.002a2.1 2.1 0 0 0-1.48.614l-.005.002-.002.002-.002.001-.002.002-.002.002-.004.01a2.1 2.1 0 0 0-.611 1.475v.004l-.002.004v.408h-.465c-.594 0-.828.153-1.029.263a2 2 0 0 0-.176.108c.19-.13-.172.132-.173.133a2 2 0 0 0-.149.138c.171-.175-.14.156-.14.157a2 2 0 0 0-.12.164l-.029.047-.049.082a8 8 0 0 0-.119.248 2 2 0 0 0-.066.187c-.143.481-.088.326-.088.613V17.78c-.916.026-1.852-.086-2.711.123-.802.196-1.572.472-2.293.977s-1.441 1.364-1.608 2.465a2 2 0 0 0-.023.33l.043 5.236a2.1 2.1 0 0 0 .272 1.016c1.433 2.536 4.249 3.09 6.734 3.138 1.242.025 2.467-.123 3.598-.486.94-.301 1.83-.823 2.55-1.656.628.073 1.262.083 1.914.049a10.8 10.8 0 0 0 3.534-.797H28.7c1.262 0 2.158-1.064 2.158-2.162V7.572c0-.57-.23-1.193-.666-1.638l-4.341-4.442a2.2 2.2 0 0 0-1.653-.69" style="fill:#f2f2f2;stroke-width:2.95926;stroke-dasharray:8.87776,8.87776"/><path d="M7.497 8.253h2.574v19.501H7.497z" style="fill:#4d4d4d;stroke-width:2.95926;stroke-dasharray:8.87776,8.87776" transform="translate(2.454 -2.582)"/><path d="M10.129 5.618h11.67l4.233 4.392v18.037H10.129Z" style="fill:#ccc;stroke-width:1.82753;stroke-dasharray:5.48258,5.48258" transform="translate(2.454 -2.582)"/><g style="stroke-width:1.16527"><path d="M3372.773 3178.056a.865.865 0 0 0-.866-.867h-38.267a.865.865 0 0 0-.867.867v323.813c0 .48.387.867.867.867h38.267c.48 0 .866-.387.866-.867zm299.347 23.28c.56 0 .84-.68.453-1.067l-62.24-62.24c-.386-.387-1.066-.12-1.066.44l.067 62.173c0 .334.293.627.626.627zm-288.48 348.934c0 .333.254.586.574.586H3681.8c.32 0 .573-.253.573-.587v-337.066a.57.57 0 0 0-.573-.573h-83.08a.57.57 0 0 1-.587-.574v-82.707a.57.57 0 0 0-.573-.573h-213.347a.57.57 0 0 0-.573.573zm-12.133-36.16h-48.52a1.22 1.22 0 0 1-1.227-1.213v-346.093a.75.75 0 0 1 .76-.76h49.013a1.4 1.4 0 0 0 1.414-1.387v-46.733c0-.2.146-.373.36-.373 61.586-.094 133.066 0 214.453.32 5.2.026 11.373-.574 17.013-.627.454-.013.92.173 1.254.52l85.88 85.867a4.68 4.68 0 0 1 1.373 3.32v354c0 .64-.52 1.173-1.173 1.173h-317.934a1.437 1.437 0 0 1-1.426-1.427v-45.36c0-.666-.56-1.226-1.24-1.226" style="fill:#12110f;fill-opacity:1;fill-rule:nonzero;stroke:none;stroke-width:.155369" transform="matrix(.05088 0 0 .05209 -159.151 -159.407)"/><path d="m3672.12 3201.336-62.16-.067a.644.644 0 0 1-.627-.627l-.067-62.173c0-.56.68-.827 1.067-.44l62.24 62.24c.387.386.107 1.066-.453 1.066" style="fill:#fff;fill-opacity:1;fill-rule:nonzero;stroke:none;stroke-width:.155369" transform="matrix(.05088 0 0 .05209 -159.151 -159.407)"/><path d="M3632.04 3291.936a.905.905 0 0 1-.907.893h-190.32a.905.905 0 0 1-.906-.893v-9.574c0-.493.413-.893.906-.893h190.32c.494 0 .907.4.907.893zm.08 35.134c0 .852-.68 1.52-1.533 1.52H3441.56a1.514 1.514 0 0 1-1.533-1.52v-8.76c0-.84.68-1.52 1.533-1.52h189.027c.853 0 1.533.68 1.533 1.52zm-.413 34.866c0 .653-.534 1.2-1.2 1.2H3440.96c-.653 0-1.2-.547-1.2-1.2v-9.027c0-.667.547-1.2 1.2-1.2h189.547c.666 0 1.2.533 1.2 1.2zm.24 55.04c0 .533-.44.973-.987.973h-189.333a.98.98 0 0 1-.987-.973v-9.88c0-.547.44-.987.987-.987h189.333c.547 0 .987.44.987.987zm.866 35.054c0 .506-.4.906-.92.906h-190.426a.9.9 0 0 1-.907-.907v-9.707c0-.506.4-.92.907-.92h190.426c.52 0 .92.414.92.92zm-46.973 35.252c0 .667-.547 1.2-1.213 1.2l-142.68-.506c-.667 0-1.2-.547-1.2-1.2l.027-9c0-.654.546-1.2 1.213-1.2l142.68.506c.667 0 1.2.547 1.2 1.2z" style="fill:#12110f;fill-opacity:1;fill-rule:nonzero;stroke:none;stroke-width:.155369" transform="matrix(.05088 0 0 .05209 -159.151 -159.407)"/></g><path d="M.777 24.305c.272-1.803 4.221-2.324 7.23-1.814l-.055-7.417c1.403-2.248 8.023-2.571 10.093-.228l.1 12.882c-.938 1.745-5.709 2.31-7.48 1.33l-.118.943c-1.334 2.159-8.17 2.294-9.727-.46Z" style="fill:#4d4d4d;stroke-width:1.60121;stroke-dasharray:4.80362,4.80362" transform="translate(2.454 -2.582)"/><path d="m13.361 15.838.006.37c0 .05.04.089.09.088h.007c.195-.003.352-.124.35-.269v-.022c-.002-.145-.162-.261-.358-.258h-.008a.09.09 0 0 0-.087.091m-.404-.71-.01-.405a.025.025 0 0 0-.026-.025l-.118.004c-.18.005-.324.11-.32.232v.007c.003.125.152.22.332.216l.118-.003c.014 0 .024-.013.024-.026m-.033 1.546a1.34 1.34 0 0 1-1.071-.502.078.078 0 0 1 .03-.123c.425-.178.613.158.985.242a.127.127 0 0 0 .152-.126v-.335a.15.15 0 0 0-.128-.15 1.9 1.9 0 0 1-.771-.273c-.46-.294-.211-.812.197-.97q.225-.087.546-.126a.11.11 0 0 0 .086-.064.6.6 0 0 1 .11-.17c.063-.067.172-.037.178.05.006.098.06.187.175.217.244.062.692.157.862.374a.13.13 0 0 1-.05.2q-.218.088-.504-.012l-.022-.011-.215-.172a.103.103 0 0 0-.166.084v.349a.15.15 0 0 0 .128.149c.422.052 1.139.228.97.817-.129.45-.596.508-.997.57a.054.054 0 0 0-.044.062q.04.267-.265.228a.133.133 0 0 1-.115-.134v-.1a.074.074 0 0 0-.071-.074M5.957 25.06l.03.395c.002.026.02.048.044.056q.24.075.375-.178a.13.13 0 0 0-.021-.155q-.18-.184-.383-.172a.05.05 0 0 0-.045.054m-.374-.754-.003-.38a.06.06 0 0 0-.058-.06l-.03.001c-.183.002-.33.109-.329.24v.025c.001.13.15.235.332.234h.03a.06.06 0 0 0 .058-.06m.087-1.144c.199-.045.236.134.304.258a.1.1 0 0 0 .07.05c.302.056.67.156.853.463a.13.13 0 0 1-.088.194.73.73 0 0 1-.52-.139 1 1 0 0 0-.171-.117.088.088 0 0 0-.13.079v.405c0 .067.046.125.11.14.426.1 1.041.232.911.817-.099.444-.537.568-.945.645a.09.09 0 0 0-.07.07l-.03.155a.13.13 0 0 1-.095.102l-.15.042c-.04.012-.08-.026-.07-.069l.038-.19a.085.085 0 0 0-.067-.1 6 6 0 0 1-.39-.08c-.212-.057-.598-.263-.727-.49a.11.11 0 0 1 .058-.16q.442-.155.68.172c.082.114.168.126.292.104a.09.09 0 0 0 .074-.074q.045-.233.02-.435a.13.13 0 0 0-.082-.104c-.276-.1-.696-.154-.9-.44q-.183-.256-.059-.514c.143-.298.57-.451.898-.525a.1.1 0 0 0 .068-.046.5.5 0 0 0 .07-.165.07.07 0 0 1 .048-.048" style="fill:#fff;fill-opacity:1;fill-rule:nonzero;stroke:none;stroke-width:.00624584" transform="translate(2.454 -2.582)"/><g style="fill:#fc0;stroke-width:1.16527"><path d="M15.138 12.627a.03.03 0 0 1-.028.03l-.14.003c-.213.006-.388-.105-.391-.248v-.008c-.005-.142.165-.262.377-.267l.14-.005a.03.03 0 0 1 .03.03zm.476.818a.104.104 0 0 1 .103-.105h.009c.23-.003.42.13.422.297v.026c.002.167-.183.306-.413.31h-.009a.104.104 0 0 1-.106-.103z" style="fill:#fc0;fill-opacity:1;fill-rule:nonzero;stroke:none;stroke-width:.00727809" transform="matrix(.84817 0 0 .8683 2.572 1.582)"/><g style="fill:#fc0;stroke-width:1.16527"><path d="M15.716 13.924v.12c0 .081.06.15.14.16q.377.047.327-.274a.066.066 0 0 1 .055-.075c.495-.074 1.07-.144 1.23-.685.207-.71-.677-.921-1.196-.985a.18.18 0 0 1-.16-.18l.002-.419c0-.105.121-.165.205-.1l.265.206q.012.009.026.014.354.12.621.013a.155.155 0 0 0 .062-.24c-.21-.261-.762-.375-1.062-.45a.274.274 0 0 1-.216-.262c-.007-.104-.142-.14-.22-.06a.7.7 0 0 0-.135.205.13.13 0 0 1-.105.077 3 3 0 0 0-.674.152c-.503.19-.81.813-.243 1.167q.42.262.95.33a.18.18 0 0 1 .159.18v.403c0 .1-.092.173-.189.152-.457-.102-.69-.506-1.214-.291a.093.093 0 0 0-.037.148q.505.597 1.32.604a.09.09 0 0 1 .089.09m-5.37-1.442c.006-1.228 2.508-2.21 5.59-2.193 3.08.015 5.572 1.023 5.566 2.251s-2.51 2.21-5.59 2.193c-3.081-.015-5.574-1.024-5.567-2.251" style="fill:#fc0;fill-opacity:1;fill-rule:nonzero;stroke:none;stroke-width:.00760896" transform="matrix(.81128 0 0 .83053 2.7 2.602)"/><path d="M21.498 13.702q.009.05-.003.568c-.028 1.266-2.288 1.816-3.227 1.982a13 13 0 0 1-4.963-.068 7.2 7.2 0 0 1-1.954-.701c-.46-.25-1.02-.713-1.063-1.257a8 8 0 0 1-.015-.615c0-.022.027-.033.043-.018q.93.914 2.217 1.241 3.047.775 6.189.159c.946-.185 2.084-.583 2.715-1.307.02-.022.056-.012.061.016" style="fill:#fc0;fill-opacity:1;fill-rule:nonzero;stroke:none;stroke-width:.00760896" transform="matrix(.81128 0 0 .83053 2.7 2.602)"/><path d="M15.903 18.192a12.7 12.7 0 0 1-2.9-.34c-.85-.202-1.833-.582-2.432-1.206a.96.96 0 0 1-.265-.562l-.055-.479c-.015-.134.147-.213.242-.118q.561.555 1.455.885c1.274.471 2.649.646 3.96.652 1.312.007 2.688-.153 3.968-.61q.897-.321 1.463-.869a.143.143 0 0 1 .242.12l-.06.478a.96.96 0 0 1-.271.56c-.606.618-1.593.986-2.445 1.18q-1.398.317-2.902.31" style="fill:#fc0;fill-opacity:1;fill-rule:nonzero;stroke:none;stroke-width:.00760896" transform="matrix(.81128 0 0 .83053 2.7 2.602)"/><path d="M21.538 17.155q.01.048-.001.57c-.025 1.27-2.292 1.827-3.233 1.997a13 13 0 0 1-4.98-.056 7.2 7.2 0 0 1-1.963-.698c-.462-.25-1.026-.713-1.07-1.259a8 8 0 0 1-.017-.616c0-.023.027-.034.043-.018a4.8 4.8 0 0 0 2.228 1.239q3.06.768 6.211.143c.949-.189 2.09-.59 2.721-1.319.019-.021.056-.012.06.017" style="fill:#fc0;fill-opacity:1;fill-rule:nonzero;stroke:none;stroke-width:.00760896" transform="matrix(.81128 0 0 .83053 2.7 2.602)"/><path d="M15.91 20.488c1.314.005 2.691-.159 3.972-.62q.897-.325 1.463-.874a.144.144 0 0 1 .242.12l-.058.479a.97.97 0 0 1-.27.561c-.606.62-1.593.992-2.447 1.188q-1.398.321-2.905.316a12.7 12.7 0 0 1-2.904-.334c-.852-.201-1.836-.578-2.44-1.202a.98.98 0 0 1-.266-.562l-.054-.479a.143.143 0 0 1 .242-.118q.562.554 1.459.881c1.276.47 2.653.64 3.966.644" style="fill:#fc0;fill-opacity:1;fill-rule:nonzero;stroke:none;stroke-width:.00760896" transform="matrix(.81128 0 0 .83053 2.7 2.602)"/><path d="M21.531 20.64c-.032.247.04.68-.072.928-.371.826-1.679 1.296-2.515 1.492a12.9 12.9 0 0 1-5.85.022.74.74 0 0 1-.454-.305 3.4 3.4 0 0 0-.945-.888c-.348-.222-.904-.392-1.228-.575-.211-.12-.202-.418-.168-.644a.068.068 0 0 1 .122-.03q.15.216.382.37c.996.66 2.2.955 3.358 1.09 1.866.216 3.75.103 5.516-.424q.651-.195 1.37-.675c.158-.105.315-.302.422-.394.026-.022.066 0 .062.033" style="fill:#fc0;fill-opacity:1;fill-rule:nonzero;stroke:none;stroke-width:.00760896" transform="matrix(.81128 0 0 .83053 2.7 2.602)"/><path d="M21.538 22.411q.032.44-.026.8c-.08.496-.85.96-1.275 1.147a8 8 0 0 1-1.919.566q-2.717.448-5.416-.131a.165.165 0 0 1-.13-.174l.074-.938a.038.038 0 0 1 .048-.035q2.96.633 5.91.019c.922-.191 2.017-.553 2.659-1.278a.043.043 0 0 1 .075.024" style="fill:#fc0;fill-opacity:1;fill-rule:nonzero;stroke:none;stroke-width:.00760896" transform="matrix(.81128 0 0 .83053 2.7 2.602)"/><path d="M21.538 24.117q.024.207.004.653c-.036.792-1.155 1.314-1.8 1.52a12.2 12.2 0 0 1-3.382.559c-1.162.034-2.346-.057-3.443-.378a.19.19 0 0 1-.136-.184l.01-.909c0-.036.035-.064.07-.056 2.178.508 4.514.494 6.658-.108.687-.194 1.453-.56 1.976-1.11.014-.015.04-.007.043.013" style="fill:#fc0;fill-opacity:1;fill-rule:nonzero;stroke:none;stroke-width:.00760896" transform="matrix(.81128 0 0 .83053 2.7 2.602)"/><path d="M21.557 25.853q.032.442-.026.804c-.08.5-.856.966-1.283 1.153a8 8 0 0 1-1.93.567q-2.734.45-5.448-.135a.17.17 0 0 1-.13-.175l.075-.943a.04.04 0 0 1 .048-.036q2.976.64 5.944.024c.927-.192 2.028-.554 2.675-1.284.026-.029.073-.013.075.025" style="fill:#fc0;fill-opacity:1;fill-rule:nonzero;stroke:none;stroke-width:.00760896" transform="matrix(.81128 0 0 .83053 2.7 2.602)"/></g></g><g style="fill:#fc0;stroke-width:1.16527"><path d="M6.626 21.704a.6.6 0 0 1-.085.198.14.14 0 0 1-.084.055c-.404.09-.93.275-1.107.632q-.153.31.074.62c.25.344.768.41 1.108.53a.15.15 0 0 1 .1.124 1.6 1.6 0 0 1-.023.524.11.11 0 0 1-.092.09c-.152.026-.258.012-.36-.125q-.293-.395-.837-.207a.133.133 0 0 0-.072.191c.159.274.635.522.896.591q.147.039.481.097c.056.01.093.065.082.12l-.047.228a.07.07 0 0 0 .088.083l.184-.05a.16.16 0 0 0 .117-.123l.038-.186a.11.11 0 0 1 .085-.085c.504-.092 1.043-.242 1.165-.776.16-.705-.597-.865-1.122-.984a.174.174 0 0 1-.135-.169v-.487c0-.082.086-.134.158-.096q.111.059.212.142c.167.138.46.195.641.167a.155.155 0 0 0 .108-.234c-.226-.37-.68-.49-1.052-.558a.12.12 0 0 1-.086-.06c-.084-.148-.13-.364-.374-.31a.08.08 0 0 0-.06.058m-5.38 1.805c.006-1.269 2.505-2.286 5.583-2.27s5.568 1.06 5.561 2.329-2.507 2.285-5.585 2.27-5.567-1.06-5.56-2.329" style="fill:#fc0;fill-opacity:1;fill-rule:nonzero;stroke:none;stroke-width:.00760896" transform="matrix(.81128 0 0 .83053 2.7 2.602)"/><path d="M6.58 23.023c0 .04-.033.072-.072.072h-.037c-.225.002-.408-.124-.409-.282v-.03c0-.157.18-.286.404-.288h.038c.04 0 .072.032.072.072zm.515.844q.252-.016.472.206c.05.049.06.125.026.187q-.164.305-.462.214a.08.08 0 0 1-.054-.067l-.037-.476a.06.06 0 0 1 .055-.064m-5.907.85a.036.036 0 0 1 .062-.024q.762.758 1.777 1.103 1.198.406 2.675.526c1.573.127 3.222.017 4.764-.464a5.7 5.7 0 0 0 1.893-1.016q.02-.017.04-.013.041.008.039.05c-.024.5-.088.986-.479 1.325q-.246.215-.743.468a7.3 7.3 0 0 1-2.144.68q-2.89.474-5.768-.338c-.637-.18-2.012-.81-2.092-1.602a5 5 0 0 1-.024-.695" style="fill:#fc0;fill-opacity:1;fill-rule:nonzero;stroke:none;stroke-width:.00760896" transform="matrix(.81128 0 0 .83053 2.7 2.602)"/><path d="M1.16 26.478a.043.043 0 0 1 .073-.026 4.4 4.4 0 0 0 1.553.981c1.15.427 2.346.603 3.601.65a13 13 0 0 0 3.668-.38c.798-.199 1.53-.506 2.175-1.02a.2.2 0 0 1 .094-.039.055.055 0 0 1 .064.053c.02.53-.037.943-.484 1.295-.665.521-1.448.814-2.32.991a13.5 13.5 0 0 1-5.457-.013c-.995-.206-2.311-.608-2.834-1.515-.141-.246-.151-.734-.133-.977" style="fill:#fc0;fill-opacity:1;fill-rule:nonzero;stroke:none;stroke-width:.00760896" transform="matrix(.81128 0 0 .83053 2.7 2.602)"/><path d="M1.155 28.197a.043.043 0 0 1 .073-.027q.668.654 1.556.984c1.155.428 2.354.604 3.613.65q1.885.072 3.678-.379c.8-.2 1.535-.508 2.181-1.023a.2.2 0 0 1 .095-.038.055.055 0 0 1 .064.052c.02.532-.037.945-.486 1.299-.666.522-1.451.817-2.327.994q-2.715.553-5.471-.014c-.999-.206-2.318-.61-2.842-1.519-.142-.247-.152-.736-.134-.98" style="fill:#fc0;fill-opacity:1;fill-rule:nonzero;stroke:none;stroke-width:.00760896" transform="matrix(.81128 0 0 .83053 2.7 2.602)"/></g></svg>