<svg xmlns="http://www.w3.org/2000/svg" width="32" height="32" viewBox="0 0 32 32"><path d="M21.979 3.238c-.68.031-1.346.288-1.932.78-.61.51-.903 1.292-.979 1.845-.004.034-.002.048-.006.08l-.205.004c-.801.012-1.838.016-2.873.016s-2.07-.006-2.869-.018c-.082 0-.126-.002-.203-.004-.041-.551-.394-1.452-1.045-1.97-.603-.481-1.286-.658-1.959-.674-.67-.016-1.373.131-2.006.588-.789.57-1.018 1.435-1.082 2.07-.289-.007-.598-.018-.888-.021-.3-.004-.509-.03-.928.056-1.533.315-2.572 1.54-2.85 2.635-.277 1.096-.14 2.065-.14 2.621v11.188c0 .851-.11 1.801.025 2.832s.736 2.3 1.947 2.892c1.266.619 2.42.416 3.27.416h14.67c.622 0 1.788.056 2.926.047 1.137-.009 2.12.097 3.248-.512 1.19-.642 1.743-1.914 1.867-2.95.124-1.038.013-2 .013-2.864V11.109c0-.787.237-1.948-.41-3.224v-.002c-.573-1.131-1.726-1.727-2.675-1.889-.655-.111-1.172-.062-1.707-.043-.064-.654-.374-1.593-1.198-2.13h-.002c-.637-.417-1.33-.614-2.01-.583" style="fill:#ececec;fill-rule:evenodd;stroke-width:.00960977"/><path d="M3.808 11.759H27.55v14.223H3.808z" style="fill:#f9f9f9;stroke-width:1.8;stroke-linecap:round;stroke-linejoin:round"/><path d="M4.783 13.69c0-.33.524-.202 1.252-.202 2.517 0 20.539-.072 21.106.03.043.11.071.135.071.24v11.187c0 .536-.41.961-.953.961H5.747c-.565 0-.964-.403-.964-.96zm4.693-7.206c0-.665.725-.606.725 0l.008 2.197-.05.36c-.406.135-.683.135-.683-.361Zm12.319-.07c0-.573.724-.5.724.138v2.06c0 .312-.025.466-.31.5-.347.04-.414-.086-.414-.364Zm-10.212.943c-.219-1.025.182-1.607-.603-2.232-.578-.46-1.62-.494-2.244-.044-.951.687-.328 1.91-.617 2.234-.21.235-2.325.008-2.828.112-2.211.455-1.853 2.499-1.853 3.86v11.187c0 1.882-.355 3.698 1.173 4.446.765.374 1.693.271 2.646.271h14.67c1.397 0 4.54.224 5.498-.293 1.502-.81 1.133-2.648 1.133-4.56V11.15c0-.905.111-1.855-.257-2.581-.722-1.427-2.376-1.194-3.86-1.171-.731.01-.535-.01-.594-.126-.244-.477.39-1.55-.635-2.22-.66-.43-1.689-.372-2.25.099-.627.525-.469 1.263-.562 2.21-.5.092-8.331.09-8.817-.004" style="fill:#4d4d4d;fill-opacity:1;fill-rule:evenodd;stroke:none;stroke-width:.00960977"/><path d="M12.694 17.079c.387.072 2.212.1 2.473-.03.076-.233.11-2.197-.008-2.33-.156-.177-.913-.078-1.214-.078-.427 0-.859-.02-1.282.017-.03.452-.076 2.065.031 2.42m-4.183 5.153c-.066.294-.12 2.223.039 2.367.1.09 2.337.106 2.448.004.113-.103.106-2.245.005-2.337-.144-.131-2.136-.064-2.492-.034" style="fill:#00f;fill-opacity:1;fill-rule:evenodd;stroke:none;stroke-width:.00960977"/><path d="M20.932 14.857c0 2.67-.203 2.256 1.067 2.255 1.788-.003 1.492.488 1.494-2.057 0-.594-.149-.414-2.213-.414-.267 0-.348-.051-.348.216" style="fill:red;fill-opacity:1;fill-rule:evenodd;stroke:none;stroke-width:.00960977"/><path d="M10.997 17.04c.107-.178.126-2.225.013-2.339-.136-.138-1.024-.06-1.236-.06-.41 0-.86-.05-1.257.047-.095.342-.037 1.319-.045 1.818-.004.289-.063.472.125.574l2.242.017c.155-.031.07-.002.158-.056m-.029 3.756c.198-.193.092-1.384.097-1.757.008-.469.107-.6-.347-.62-.284-.011-.649.01-.944.01-1.426 0-1.309-.137-1.301.61.005.535-.043 1.259.032 1.766.213.068 2.28.132 2.463-.009m1.732.051c.393.05.973.019 1.389.019 1.353 0 1.113.243 1.115-1.481.002-.75.125-.957-.325-.957-2.466 0-2.242-.154-2.234.47.006.493-.05 1.66.056 1.949m4.151-3.756 2.493.012-.005-2.43-2.509-.033c-.085.408-.105 2.11.02 2.45m.019 3.757c.431.054 2.12.052 2.466-.027.04-.444.008-.914.008-1.366 0-.214.02-.495.01-.697-.017-.344.004-.329-.376-.329l-2.132.02c-.105.35-.127 2.118.024 2.4" style="fill:#00f;fill-opacity:1;fill-rule:evenodd;stroke:none;stroke-width:.00960977"/><path d="M20.932 20.621c0 .277.088.246.348.246.568 0 1.67.036 2.175-.026.071-.38.03-.89.03-1.318.001-1.31.425-1.094-2.205-1.094-.288 0-.348.07-.348.34z" style="fill:red;fill-opacity:1;fill-rule:evenodd;stroke:none;stroke-width:.00960977"/><path d="M15.023 24.655c.16 0 .181-.047.181-.19v-2.06c0-.14-.023-.188-.181-.188l-2.347.015c-.05.485-.065 1.958.007 2.411zm1.811-2.435c-.087.35-.085 2.075-.002 2.435l2.51-.012-.033-2.424z" style="fill:#00f;fill-opacity:1;fill-rule:evenodd;stroke:none;stroke-width:.00960977"/></svg>