<svg xmlns="http://www.w3.org/2000/svg" width="32" height="32" viewBox="0 0 32 32"><path d="M5.463 1.59c-1.612 0-2.897 1.366-2.897 2.935v15.623c0 1.57 1.285 2.936 2.897 2.936H6.68c.091.351.256.733.591 1.08a2 2 0 0 0 .16.147l7.032 5.644.057.043c.744.55 1.993.515 2.585.213.593-.302.862-.62.926-.674.383-.315.71-.55 1.14-.889 3.47-2.713 7.07-5.701 10.513-8.441.095-.076.887-.539 1.132-1.557a1.7 1.7 0 0 0 .05-.384l.011-.875v-.067a3.3 3.3 0 0 0-.18-.867c-.069-.157.054.173.059.203.032.186.07.34.035-.312a2.5 2.5 0 0 0-.361-1.092 3 3 0 0 0-.662-.711l-.008-.008-3.487-2.799c-.264-.222-1.639-1.417-3.168-2.38-.178-.113-.558-.41-1.224-.57-.272-.067-.61-.041-.944.001V4.525c0-1.573-1.286-2.935-2.898-2.935zm6.289 9.473c.05.061.052.143.09.212-.038.07-.04.152-.09.213-.05-.061-.051-.143-.09-.213.039-.069.04-.15.09-.212m4.312 0c.051.061.052.143.09.212-.038.07-.039.152-.09.213-.05-.061-.051-.143-.09-.213.039-.069.04-.15.09-.212m-8.507 3.554c.05.061.051.143.09.211-.039.069-.04.15-.09.211-.05-.061-.052-.142-.09-.21.038-.07.04-.15.09-.212m0 3.563c.049.06.05.14.088.207-.038.066-.04.145-.088.205-.049-.06-.05-.139-.088-.205.037-.068.039-.147.088-.207" style="fill:#f2f2f2;stroke-width:1.674;stroke-dasharray:5.022,5.022"/><path d="M5.358 4.556h12.76V8.77H5.358z" style="fill:#ff0;stroke-width:1.674;stroke-dasharray:5.022,5.022"/><path d="M10.027 13.417h3.537v2.794h-3.537z" style="fill:#fc0;stroke-width:1.674;stroke-dasharray:5.022,5.022"/><path d="M5.766 9.745h3.675v3.187H5.766z" style="fill:#d35f5f;stroke-width:1.674;stroke-dasharray:5.022,5.022"/><g style="fill:#2a7fff;stroke-width:1.19147"><path d="M-641.694 465.842c0 .49-.398.887-.887.887h-19.873a.887.887 0 0 1-.887-.887v-3.976c0-.49.397-.887.887-.887h19.873c.49 0 .887.397.887.887zm0 7.54c0 .49-.398.886-.887.886h-3.638a.887.887 0 0 1-.887-.887v-2.052c0-.49.397-.887.887-.887h3.638c.49 0 .887.397.887.887zm0 13.148c0 .49-.398.887-.887.887h-3.638a.887.887 0 0 1-.887-.887v-8.627c0-.49.397-.887.887-.887h3.638c.49 0 .887.398.887.887zm-8.23-13.149c0 .49-.398.887-.888.887h-3.637a.887.887 0 0 1-.887-.887v-2.052c0-.49.397-.887.887-.887h3.637c.49 0 .888.397.888.887zm0 6.575c0 .49-.398.887-.888.887h-3.637a.887.887 0 0 1-.887-.887v-2.053c0-.49.397-.887.887-.887h3.637c.49 0 .888.398.888.887zm0 6.574c0 .49-.398.887-.888.887h-3.637a.887.887 0 0 1-.887-.887v-2.052c0-.49.397-.887.887-.887h3.637c.49 0 .888.397.888.887zm-8.005-13.149c0 .49-.397.887-.887.887h-3.638a.887.887 0 0 1-.887-.887v-2.052c0-.49.397-.887.887-.887h3.638c.49 0 .887.397.887.887zm0 6.575c0 .49-.397.887-.887.887h-3.638a.887.887 0 0 1-.887-.887v-2.053c0-.49.397-.887.887-.887h3.638c.49 0 .887.398.887.887zm0 6.574c0 .49-.397.887-.887.887h-3.638a.887.887 0 0 1-.887-.887v-2.052c0-.49.397-.887.887-.887h3.638c.49 0 .887.397.887.887zm17.3-28.863h-24.002a2.205 2.205 0 0 0-2.205 2.205v28.891c0 1.218.987 2.205 2.205 2.205h24.001a2.205 2.205 0 0 0 2.205-2.205v-28.891a2.205 2.205 0 0 0-2.205-2.205" style="fill:#2a7fff;fill-opacity:1;fill-rule:nonzero;stroke:none;stroke-width:.0397462" transform="matrix(.524 0 0 .54078 353.723 -244.137)"/></g><path d="m21.287 10.828 7.273 5.662.108 1.825-12.415 10.038-7.471-5.736.144-2.458z" style="fill:#f9f9f9;stroke-width:1.674;stroke-dasharray:5.022,5.022"/><g style="fill:#052;stroke-width:1.19147"><path d="M85.72 19.164c.232.234.355.284.612.634l-.423.628.46.579c-.34.44-.855.73-1.286 1.054-3.247 2.443-7.152 5.757-10.289 8.06-.447.33-.81.592-1.303.98-.87.685-1.718 1.395-2.627 2.055-.848.617-1.695 1.313-2.562 1.995-3.032 2.382-2.46 2.386-4.199.964l-2.992-2.327c-.311-.228-.426-.346-.695-.57l-3.706-2.878c-.573-.445-.93-.741-1.498-1.156-.247-.181-.436-.358-.707-.56-.347-.256-.512-.338-.73-.723.218-.327.199-.218.417-.474-.276-.6-.175.024-.408-.665.224-.332.21-.244.451-.507-.233-.445-.479-.461-.597-.837.248-.397 1.905-1.615 2.482-2.066 3.12-2.434 7.35-5.845 10.332-8.023l6.49-5.034c1.535-1.173 1.174-1.43 2.917.016l10.277 8.096c-.115.64-.294.29-.416.759m-30.503 3.178c-.17.452-1.559 1.372-1.954 1.693-1.001.813-1.39.652-1.106 2.263.152.864-.316 2.04.334 2.69l12.107 9.417c.963.688 1.745-.188 2.358-.676.731-.583 1.326-1 2.02-1.527 5.925-4.49 12.118-9.472 18.082-14.07.387-.298.784-.515.905-1.002l.018-1.46c-.01-.425-.095-.294-.165-.686-.132-.743.396-.952-.638-1.768l-6.052-4.71c-.547-.444-2.756-2.293-5.126-3.742-.715-.436-1.607-1.038-2.724-.244" style="fill:#052;fill-opacity:1;fill-rule:evenodd;stroke:none;stroke-width:.0171128" transform="matrix(.58073 0 0 .59934 -21.962 5.608)"/><path d="M68.354 16.417c3.415-.435 7.334.798 8.354 4.177.534 1.768-.057 2.14-.039 2.953.4-.09 2.842-2.088 3.353-2.502 1.084-.876 2.295-1.702 3.341-2.64-.25-.5-6.586-5.291-7.534-6.042-1.203-.955-1.07-1.145-1.906-.456l-4.755 3.729c-.371.247-.754.392-.814.781M56.448 25.62c.179.317 1.695 1.433 2.107 1.739.752.557 1.452 1.143 2.19 1.732l4.483 3.408c.493-.22 2.808-2.143 3.406-2.588.644-.48 2.928-2.206 3.315-2.676-1.665.22-1.225.227-2.796.202-2.868 0-6.483-2.438-6.483-5.108l.049-1.528c-.417.1-1.17.742-1.614 1.079-.522.395-1.025.808-1.56 1.223-.55.43-1.001.787-1.557 1.227-.452.356-1.283.83-1.54 1.29" style="fill:#052;fill-opacity:1;fill-rule:evenodd;stroke:none;stroke-width:.0171128" transform="matrix(.58073 0 0 .59934 -21.962 5.608)"/><path d="M73.833 22.963c0 .777-1.86-.773-1.983-1.127.377-.41 1.983.148 1.983 1.127m-5.185-1.229c-1.506.436-3.355-.46-2.027-1.75l1.651 1.195c.392.344.257.047.376.555m3.524 2.648c-1.363 1.034-3.694-.987-3.398 1.167 1.832 1.003 2.665.652 4.326-.046.854-.359.47.2 1.496.127.66-.4.626-.493.396-1.16-.227-.66 1.461-2.602-1.254-3.813-.577-.257-.992-.329-1.67-.309-.728.022-1.15.338-1.57.374-.331.027-2.035-1.263-2.18-1.632 1.093-.247 1.315.668 2.405.377.43-.928-.201-1.418-1.06-1.698-1.129-.366-1.457-.201-2.56.112-.666.19-1.495-.915-2.012.142-.292.596.237.638.169 1.08-.029.183-.43.723-.52 1.098-.49 2.032 1.445 3.212 3.258 3.088 2.32-.161 1.094-1.35 3.34.274.288.21.695.485.834.819" style="fill:#052;fill-opacity:1;fill-rule:evenodd;stroke:none;stroke-width:.0171128" transform="matrix(.58073 0 0 .59934 -21.962 5.608)"/><path d="M54.528 26.803c2.11 1.59 4.492 3.711 6.803 5.372.503.362 3.996 3.23 4.277 3.221.302-.01 4.261-3.284 5.038-3.852 3.954-2.885 8.462-6.763 12.477-9.676.464-.336.816-.648 1.265-1.015.911-.749 1.082-.523 1.118-1.227-.727-.192-1.425.705-1.985 1.12L66.233 34.22c-1.02.803-1.14.355-2.014-.375l-8.626-6.691c-.327-.282-.632-.691-1.065-.35" style="fill:#052;fill-opacity:1;fill-rule:evenodd;stroke:none;stroke-width:.0171128" transform="matrix(.58073 0 0 .59934 -21.962 5.608)"/><path d="M65.608 36.522c.619-.297 6.402-4.986 7.592-5.844l9.952-7.766c.572-.44 2.21-1.504 2.385-2.121-.58.143-.99.583-1.418.932-3.428 2.788-7.575 5.77-11.104 8.646l-7.407 5.668c-.564.019-10.005-8.055-11.05-8.295.125.562.828.917 1.299 1.3l6.904 5.375c.722.528 2.104 1.79 2.847 2.105" style="fill:#052;fill-opacity:1;fill-rule:evenodd;stroke:none;stroke-width:.0171128" transform="matrix(.58073 0 0 .59934 -21.962 5.608)"/></g></svg>