<svg xmlns="http://www.w3.org/2000/svg" width="32" height="32" viewBox="0 0 32 32"><defs><clipPath id="a" clipPathUnits="userSpaceOnUse"><path d="m1032.99 2473.45 2.67-1181.12 1028.97-418.439V2115.29ZM2078.26 821.18l-1072.67 436.18c-8.227 3.34-13.598 11.3-13.656 20.19l-2.735 1226.58c0 7.08 3.418 13.73 9.18 17.83 5.781 4.14 13.181 5.25 19.861 2.86l1075.43-373.34a21.83 21.83 0 0 0 14.67-20.63V841.41c0-7.281-3.59-14.07-9.65-18.121a21.75 21.75 0 0 0-12.21-3.738c-2.79 0-5.54.539-8.22 1.629"/></clipPath><clipPath id="d" clipPathUnits="userSpaceOnUse"><path d="m2129 2956.21-1051.56-439.44 1023.32-346.16 1050.88 444.26zm-34.41-829.67-1085.94 367.39c-8.61 2.91-14.548 10.85-14.822 19.93-.351 9.11 5.02 17.44 13.402 20.92l1112.48 464.91c4.84 2.05 10.39 2.27 15.35.56L3220.37 2638c8.67-2.89 14.61-10.79 14.94-19.88.35-9.1-4.96-17.43-13.36-20.97l-1111.83-470.04c-2.74-1.15-5.59-1.74-8.52-1.74-2.38 0-4.72.4-7.01 1.17"/></clipPath><clipPath id="e" clipPathUnits="userSpaceOnUse"><path d="m2129 2956.21-1051.56-439.44 1023.32-346.16 1050.88 444.26zm-34.41-829.67-1085.94 367.39c-8.61 2.91-14.548 10.85-14.822 19.93-.351 9.11 5.02 17.44 13.402 20.92l1112.48 464.91c4.84 2.05 10.39 2.27 15.35.56L3220.37 2638c8.67-2.89 14.61-10.79 14.94-19.88.35-9.1-4.96-17.43-13.36-20.97l-1111.83-470.04c-2.74-1.15-5.59-1.74-8.52-1.74-2.38 0-4.72.4-7.01 1.17"/></clipPath><clipPath id="f" clipPathUnits="userSpaceOnUse"><path d="M3200.04 2582.57 2118.4 2123.48l-8.79-1259.519 1090.94 488.729ZM2089.63 814.93c-10.68 0-19.3 8.609-19.3 19.23 0 1.692.22 3.309.63 4.852l9.08 1297.398c.06 7.68 4.61 14.59 11.7 17.58l1120.06 475.35c5.88 2.48 12.73 1.86 18.1-1.68 5.41-3.57 8.62-9.59 8.62-16.04l.5-1271.4c0-7.6-4.45-14.47-11.34-17.56L2098.07 816.609c-2.5-1.14-5.2-1.679-7.87-1.679z"/></clipPath><clipPath id="h" clipPathUnits="userSpaceOnUse"><path d="m1504.22 2375.86 193.96-67.71 953.17 444.52-161.15 56.4zm195-110.24c-2.11 0-4.28.34-6.33 1.09l-250.84 87.52c-7.81 2.73-13.18 10.15-13.53 18.66-.34 8.5 4.51 16.33 12.05 19.7l1041.05 457.36c4.45 1.99 9.53 2.17 14.16.57l216.08-75.64c7.75-2.74 13.12-10.05 13.45-18.44.41-8.44-4.16-16.27-11.64-19.75l-1006.29-469.24c-2.58-1.25-5.37-1.83-8.16-1.83"/></clipPath><clipPath id="j" clipPathUnits="userSpaceOnUse"><path d="M1483.77 2336.79c-1.43.25-2.91.5-4.34.76v-496.5l182-76.66v506.28c-68.97 23.16-125.71 44.28-177.66 66.12m188.91-617.15-218.81 92.18a18.44 18.44 0 0 0-11.31 17v530.6c0 5.47 2.46 10.7 6.68 14.18 4.24 3.52 9.76 4.94 15.19 3.91 4.28-.79 8.56-1.49 12.78-2.19 5.19-.86 10.33-1.72 15.47-2.71 1.27-.26 2.46-.63 3.61-1.12 54.69-23.01 114.84-45.27 189.39-70.05a18.44 18.44 0 0 0 12.62-17.49v-547.33c0-6.16-3.14-11.93-8.28-15.36-3.01-2.02-6.62-3.08-10.16-3.08-2.46 0-4.84.48-7.18 1.46"/></clipPath><clipPath id="l" clipPathUnits="userSpaceOnUse"><path d="M1486.17 2423.35c-126.89 65.19-265.33 143.57-415.56 221.43l-233.95-364.37c-2.91-6.56-1.992-14.33 2.461-21.63 4.453-7.37 12.09-13.65 21.113-17.41l998.946-454.06c4.55-1.82 10.16-.57 15.62 2.91 5.49 3.48 10.86 9.13 14.79 16.21l232.46 328.41c-70.57 38.7-147.91 81.01-231.93 129.02-123.48 41.78-257.01 81.34-403.95 159.49"/></clipPath><clipPath id="n" clipPathUnits="userSpaceOnUse"><path d="M1873.16 1813 871.152 2266.02l232.678 361.87c-19.47 9.93-39.06 19.86-58.93 29.68-2.91 1.31-5.7 2.34-8.67 3.66l-234.609-366.38c-5.781-13.01-3.711-28.65 5.469-43.38 9.199-14.68 24.609-27.28 42.754-34.94l995.686-455.02c9.08-3.65 20.21-1.14 30.93 5.94 10.81 7.07 21.35 18.54 29.18 32.7l231.47 326.64c-9.92 5.42-20.2 10.85-30.47 16.33z"/></clipPath><clipPath id="p" clipPathUnits="userSpaceOnUse"><path d="M2777.21 2398.97c135.23 52.64 284 116.29 443.38 176.92l140.89-376.25c1.31-6.57-1.27-14.05-7.14-20.84-5.88-6.74-14.61-12.33-24.09-15.35l-1063.2-391.55c-4.86-1.66-9.94.05-14.28 4.05-4.39 4.06-8.04 10.39-10.04 18.16l-138.26 367.11c76.66 34.47 160.57 71.76 252.13 113.89 127.13 31.33 263.05 59.02 420.61 123.86"/></clipPath><clipPath id="r" clipPathUnits="userSpaceOnUse"><path d="m2260.14 1799.99 1065.25 388.34-139.96 374.6c20.55 7.59 41.27 15.24 62.17 22.71 3.08.92 5.99 1.66 9.02 2.63l141.45-377.33c2.67-13.13-2.8-28.09-14.85-41.67-12.05-13.65-29.51-24.66-48.57-30.82l-1061.1-394.81c-9.59-3.37-19.64.06-28.14 8.16-8.57 8.23-15.76 21.07-19.69 36.66l-137.63 365.56c10.89 4.85 21.85 9.71 33.04 14.62z"/></clipPath><clipPath id="t" clipPathUnits="userSpaceOnUse"><path d="M2019.92 2997.74c39.61 17.47 78.15 34.99 115.65 52.23l-428.36 359.86c-3.71 4.35-9.3 7.31-15.41 8.69-6.12 1.37-12.74 1.02-18.44-1.27L596.387 2989.07c-8.555-3.43-15.41-8.28-19.004-13.65-3.594-5.36-3.653-10.68-.176-14.85l463.923-384.34c367.82 159.03 694.05 298.09 978.79 421.51"/></clipPath><clipPath id="v" clipPathUnits="userSpaceOnUse"><path d="m1072.3 2589.53-462.945 383.72 1077.185 428.31 429.4-360.55c13.12 6.05 26.21 11.88 39.16 17.86L1727.6 3418c-7.09 8.28-18.05 14.61-30.55 17.42-12.5 2.85-25.62 1.99-36.6-2.35L583.613 3004.93c-17.011-6.73-30.781-16.6-38.144-27.34-7.422-10.79-7.637-21.52-.684-29.86l465.015-385.04c20.96 8.97 41.78 17.99 62.5 26.84"/></clipPath><clipPath id="x" clipPathUnits="userSpaceOnUse"><path d="M2232.05 2997.74c-39.57 17.47-78.09 34.99-115.66 52.23l428.49 359.86c3.6 4.35 9.24 7.31 15.35 8.69 6.12 1.37 12.68 1.02 18.44-1.27l1077.03-428.18c8.44-3.43 15.3-8.28 18.95-13.65 3.59-5.36 3.71-10.68.17-14.85l-463.94-384.34c-367.79 159.03-694.02 298.09-978.83 421.51"/></clipPath><clipPath id="z" clipPathUnits="userSpaceOnUse"><path d="m3179.73 2589.53 462.95 383.72-1077.25 428.31-429.28-360.55c-13.24 6.05-26.27 11.88-39.22 17.86l427.5 359.13c7.09 8.28 18.05 14.61 30.55 17.42 12.5 2.85 25.63 1.99 36.58-2.35l1076.8-428.14c17.07-6.73 30.84-16.6 38.2-27.34 7.37-10.79 7.64-21.52.74-29.86l-465.01-385.04c-20.96 8.97-41.84 17.99-62.56 26.84"/></clipPath><clipPath id="B" clipPathUnits="userSpaceOnUse"><path d="M2131.58 3062.99c-19.69-.23-38.59-3.6-52.52-9.42L1004.9 2614.3c-13.884-5.65-21.697-13.19-21.697-21.01 0-7.81 7.813-15.35 21.697-20.83l1074.16-432.99c14.49-5.94 33.52-9.02 52.52-9.08 19.01-.11 38.01 2.68 52.52 8.56l1074.22 439.39c13.87 5.82 21.7 13.64 21.7 21.8 0 8.17-7.83 15.99-21.7 21.69L2184.1 3054.77c-13.87 5.48-32.77 8.45-52.52 8.22m0-30.14 1074.16-432.88-1074.16-439.43-1074.12 432.98z"/></clipPath><linearGradient id="c" x1="0" x2="1" y1="0" y2="0" gradientTransform="rotate(48.814 -537.288 1371.56)scale(4039.47 -4039.47)" gradientUnits="userSpaceOnUse" spreadMethod="pad"><stop offset="0" style="stop-opacity:1;stop-color:#9a1475"/><stop offset=".206" style="stop-opacity:1;stop-color:#9a1475"/><stop offset=".903" style="stop-opacity:1;stop-color:#5fa8e1"/><stop offset="1" style="stop-opacity:1;stop-color:#5fa8e1"/></linearGradient><linearGradient id="g" x1="0" x2="1" y1="0" y2="0" gradientTransform="rotate(48.814 336.303 1767.97)scale(4039.44 -4039.44)" gradientUnits="userSpaceOnUse" spreadMethod="pad"><stop offset="0" style="stop-opacity:1;stop-color:#9a1475"/><stop offset=".206" style="stop-opacity:1;stop-color:#9a1475"/><stop offset=".903" style="stop-opacity:1;stop-color:#5fa8e1"/><stop offset="1" style="stop-opacity:1;stop-color:#5fa8e1"/></linearGradient><linearGradient id="i" x1="0" x2="1" y1="0" y2="0" gradientTransform="matrix(2660 3040 3040 -2660 705.928 997.68)" gradientUnits="userSpaceOnUse" spreadMethod="pad"><stop offset="0" style="stop-opacity:1;stop-color:#9a1475"/><stop offset=".206" style="stop-opacity:1;stop-color:#9a1475"/><stop offset=".903" style="stop-opacity:1;stop-color:#5fa8e1"/><stop offset="1" style="stop-opacity:1;stop-color:#5fa8e1"/></linearGradient><linearGradient id="k" x1="0" x2="1" y1="0" y2="0" gradientTransform="matrix(2660 3040 3040 -2660 675.02 1024.71)" gradientUnits="userSpaceOnUse" spreadMethod="pad"><stop offset="0" style="stop-opacity:1;stop-color:#9a1475"/><stop offset=".206" style="stop-opacity:1;stop-color:#9a1475"/><stop offset=".903" style="stop-opacity:1;stop-color:#5fa8e1"/><stop offset="1" style="stop-opacity:1;stop-color:#5fa8e1"/></linearGradient><linearGradient id="m" x1="0" x2="1" y1="0" y2="0" gradientTransform="matrix(2660 3040 3040 -2660 536.289 1146.11)" gradientUnits="userSpaceOnUse" spreadMethod="pad"><stop offset="0" style="stop-opacity:1;stop-color:#9a1475"/><stop offset=".206" style="stop-opacity:1;stop-color:#9a1475"/><stop offset=".903" style="stop-opacity:1;stop-color:#5fa8e1"/><stop offset="1" style="stop-opacity:1;stop-color:#5fa8e1"/></linearGradient><linearGradient id="o" x1="0" x2="1" y1="0" y2="0" gradientTransform="rotate(228.814 526.002 456.184)scale(-4039.44 4039.44)" gradientUnits="userSpaceOnUse" spreadMethod="pad"><stop offset="0" style="stop-opacity:1;stop-color:#9a1475"/><stop offset=".206" style="stop-opacity:1;stop-color:#9a1475"/><stop offset=".903" style="stop-opacity:1;stop-color:#5fa8e1"/><stop offset="1" style="stop-opacity:1;stop-color:#5fa8e1"/></linearGradient><linearGradient id="q" x1="0" x2="1" y1="0" y2="0" gradientTransform="matrix(2660 3040 3040 -2660 1270.99 503.25)" gradientUnits="userSpaceOnUse" spreadMethod="pad"><stop offset="0" style="stop-opacity:1;stop-color:#9a1475"/><stop offset=".206" style="stop-opacity:1;stop-color:#9a1475"/><stop offset=".903" style="stop-opacity:1;stop-color:#5fa8e1"/><stop offset="1" style="stop-opacity:1;stop-color:#5fa8e1"/></linearGradient><linearGradient id="s" x1="0" x2="1" y1="0" y2="0" gradientTransform="rotate(48.814 92.222 1657.222)scale(4039.44 -4039.44)" gradientUnits="userSpaceOnUse" spreadMethod="pad"><stop offset="0" style="stop-opacity:1;stop-color:#9a1475"/><stop offset=".206" style="stop-opacity:1;stop-color:#9a1475"/><stop offset=".903" style="stop-opacity:1;stop-color:#5fa8e1"/><stop offset="1" style="stop-opacity:1;stop-color:#5fa8e1"/></linearGradient><linearGradient id="u" x1="0" x2="1" y1="0" y2="0" gradientTransform="rotate(48.814 -1669.075 857.98)scale(4039.47 -4039.47)" gradientUnits="userSpaceOnUse" spreadMethod="pad"><stop offset="0" style="stop-opacity:1;stop-color:#9a1475"/><stop offset=".206" style="stop-opacity:1;stop-color:#9a1475"/><stop offset=".903" style="stop-opacity:1;stop-color:#5fa8e1"/><stop offset="1" style="stop-opacity:1;stop-color:#5fa8e1"/></linearGradient><linearGradient id="w" x1="0" x2="1" y1="0" y2="0" gradientTransform="matrix(2660 3040 3040 -2660 69.414 1554.63)" gradientUnits="userSpaceOnUse" spreadMethod="pad"><stop offset="0" style="stop-opacity:1;stop-color:#9a1475"/><stop offset=".206" style="stop-opacity:1;stop-color:#9a1475"/><stop offset=".903" style="stop-opacity:1;stop-color:#5fa8e1"/><stop offset="1" style="stop-opacity:1;stop-color:#5fa8e1"/></linearGradient><linearGradient id="y" x1="0" x2="1" y1="0" y2="0" gradientTransform="rotate(48.814 -387.262 1439.63)scale(4039.47 -4039.47)" gradientUnits="userSpaceOnUse" spreadMethod="pad"><stop offset="0" style="stop-opacity:1;stop-color:#9a1475"/><stop offset=".206" style="stop-opacity:1;stop-color:#9a1475"/><stop offset=".903" style="stop-opacity:1;stop-color:#5fa8e1"/><stop offset="1" style="stop-opacity:1;stop-color:#5fa8e1"/></linearGradient><linearGradient id="A" x1="0" x2="1" y1="0" y2="0" gradientTransform="matrix(2660 3040 3040 -2660 955.85 778.99)" gradientUnits="userSpaceOnUse" spreadMethod="pad"><stop offset="0" style="stop-opacity:1;stop-color:#9a1475"/><stop offset=".206" style="stop-opacity:1;stop-color:#9a1475"/><stop offset=".903" style="stop-opacity:1;stop-color:#5fa8e1"/><stop offset="1" style="stop-opacity:1;stop-color:#5fa8e1"/></linearGradient></defs><g style="stroke-width:14.2535"><path d="M335.52 107.979a35.6 35.6 0 0 0-10.108.832c-5.527 1.248-10.702 3.629-15.451 7.918l-26.205 22.025-26.229-22.031c-4.747-4.286-9.92-6.664-15.445-7.912a35.4 35.4 0 0 0-10.234-.815h-.002c-3.018.195-6.623.776-10.606 2.35l-.055.021-120.302 47.838c-5.842 2.311-11.586 5.122-17.281 13.422-5.795 8.453-6.96 27.473 1.546 37.676a28.5 28.5 0 0 0 3.713 3.7l29.893 24.745-7.008 10.94a28.5 28.5 0 0 0-2.045 3.796c-5.106 11.492-2.304 23.802 2.467 31.457l.037.06c4.72 7.534 10.71 12.026 17.84 15.036l-.768-.338-.941-.43.182 79.561v.107c.075 12.458 7.847 23.813 19.289 28.458l117.146 47.634c4.452 2.45 9.48 3.897 14.715 3.897h.084c2.751 0 7.71-.47 12.674-2.733l126.103-56.49.012-.004c11.357-5.093 18.068-16.337 18.068-27.95v-.01l-.021-65.442-7.842 2.912-1.156.402c6.772-2.189 12.672-5.665 17.982-11.668 5.315-5.998 10.927-16.057 8.256-29.191a28.5 28.5 0 0 0-1.24-4.317l-8.254-22.03 34.322-28.4a28.5 28.5 0 0 0 3.785-3.785c8.657-10.463 7.104-29.323 1.493-37.539l-.026-.035c-5.674-8.28-11.453-11.137-17.328-13.453l-120.271-47.826-.03-.012a34.5 34.5 0 0 0-10.76-2.376" style="fill:#f2f2f2;stroke-width:1.90046" transform="translate(-3.888 -3.887)scale(.07016)"/><path d="m244.854 398.79-119.901-48.755-.307-137.104 120.208 41.73z" style="fill:#fff;fill-opacity:1;fill-rule:nonzero;stroke:none;stroke-width:1.90046" transform="translate(-1.488 -1.905)scale(.07016)"/><path d="m1032.99 2473.45 2.67-1181.12 1028.97-418.439V2115.29ZM2078.26 821.18l-1072.67 436.18c-8.227 3.34-13.598 11.3-13.656 20.19l-2.735 1226.58c0 7.08 3.418 13.73 9.18 17.83 5.781 4.14 13.181 5.25 19.861 2.86l1075.43-373.34a21.83 21.83 0 0 0 14.67-20.63V841.41c0-7.281-3.59-14.07-9.65-18.121a21.75 21.75 0 0 0-12.21-3.738c-2.79 0-5.54.539-8.22 1.629" clip-path="url(#a)" style="fill:url(#c);fill-opacity:1;fill-rule:nonzero;stroke:none;stroke-width:17.0024" transform="matrix(.00784 0 0 -.00784 -.672 32.672)"/><path d="m370.823 200.291-124.28 52.54-121.385-41.068 124.355-51.964z" style="fill:#fff;fill-opacity:1;fill-rule:nonzero;stroke:none;stroke-width:1.90046" transform="translate(-1.488 -1.905)scale(.07016)"/><path d="m2129 2956.21-1051.56-439.44 1023.32-346.16 1050.88 444.26zm-34.41-829.67-1085.94 367.39c-8.61 2.91-14.548 10.85-14.822 19.93-.351 9.11 5.02 17.44 13.402 20.92l1112.48 464.91c4.84 2.05 10.39 2.27 15.35.56L3220.37 2638c8.67-2.89 14.61-10.79 14.94-19.88.35-9.1-4.96-17.43-13.36-20.97l-1111.83-470.04c-2.74-1.15-5.59-1.74-8.52-1.74-2.38 0-4.72.4-7.01 1.17" clip-path="url(#d)" style="fill:url(#linearGradient67);fill-opacity:1;fill-rule:nonzero;stroke:none;stroke-width:17.0024" transform="matrix(.00784 0 0 -.00784 -.672 32.672)"/><path d="m2129 2956.21-1051.56-439.44 1023.32-346.16 1050.88 444.26zm-34.41-829.67-1085.94 367.39c-8.61 2.91-14.548 10.85-14.822 19.93-.351 9.11 5.02 17.44 13.402 20.92l1112.48 464.91c4.84 2.05 10.39 2.27 15.35.56L3220.37 2638c8.67-2.89 14.61-10.79 14.94-19.88.35-9.1-4.96-17.43-13.36-20.97l-1111.83-470.04c-2.74-1.15-5.59-1.74-8.52-1.74-2.38 0-4.72.4-7.01 1.17" clip-path="url(#e)" style="fill:url(#linearGradient68);fill-opacity:1;fill-rule:nonzero;stroke:none;stroke-width:17.0024" transform="matrix(.00784 0 0 -.00784 -.672 32.672)"/><path d="m245.27 399.6 126.26-56.565-.056-142.112-125.19 53.133z" style="fill:#e6e6e6;fill-opacity:1;fill-rule:nonzero;stroke:none;stroke-width:1.90046" transform="translate(-1.488 -1.905)scale(.07016)"/><path d="M3200.04 2582.57 2118.4 2123.48l-8.79-1259.519 1090.94 488.729ZM2089.63 814.93c-10.68 0-19.3 8.609-19.3 19.23 0 1.692.22 3.309.63 4.852l9.08 1297.398c.06 7.68 4.61 14.59 11.7 17.58l1120.06 475.35c5.88 2.48 12.73 1.86 18.1-1.68 5.41-3.57 8.62-9.59 8.62-16.04l.5-1271.4c0-7.6-4.45-14.47-11.34-17.56L2098.07 816.609c-2.5-1.14-5.2-1.679-7.87-1.679z" clip-path="url(#f)" style="fill:url(#g);fill-opacity:1;fill-rule:nonzero;stroke:none;stroke-width:17.0024" transform="matrix(.00784 0 0 -.00784 -.672 32.672)"/><path d="m1504.22 2375.86 193.96-67.71 953.17 444.52-161.15 56.4zm195-110.24c-2.11 0-4.28.34-6.33 1.09l-250.84 87.52c-7.81 2.73-13.18 10.15-13.53 18.66-.34 8.5 4.51 16.33 12.05 19.7l1041.05 457.36c4.45 1.99 9.53 2.17 14.16.57l216.08-75.64c7.75-2.74 13.12-10.05 13.45-18.44.41-8.44-4.16-16.27-11.64-19.75l-1006.29-469.24c-2.58-1.25-5.37-1.83-8.16-1.83" clip-path="url(#h)" style="fill:url(#i);fill-opacity:1;fill-rule:nonzero;stroke:none;stroke-width:17.0024" transform="matrix(.00784 0 0 -.00784 -.672 32.672)"/><path d="M199.403 298.727V237.55c-7.204-2.394-14.336-4.945-21.318-7.887-1.04-.205-2.098-.35-3.145-.55v59.31z" style="fill:#fff;fill-opacity:1;fill-rule:nonzero;stroke:none;stroke-width:1.90046" transform="translate(-1.488 -1.905)scale(.07016)"/><path d="M1483.77 2336.79c-1.43.25-2.91.5-4.34.76v-496.5l182-76.66v506.28c-68.97 23.16-125.71 44.28-177.66 66.12m188.91-617.15-218.81 92.18a18.44 18.44 0 0 0-11.31 17v530.6c0 5.47 2.46 10.7 6.68 14.18 4.24 3.52 9.76 4.94 15.19 3.91 4.28-.79 8.56-1.49 12.78-2.19 5.19-.86 10.33-1.72 15.47-2.71 1.27-.26 2.46-.63 3.61-1.12 54.69-23.01 114.84-45.27 189.39-70.05a18.44 18.44 0 0 0 12.62-17.49v-547.33c0-6.16-3.14-11.93-8.28-15.36-3.01-2.02-6.62-3.08-10.16-3.08-2.46 0-4.84.48-7.18 1.46" clip-path="url(#j)" style="fill:url(#k);fill-opacity:1;fill-rule:nonzero;stroke:none;stroke-width:17.0024" transform="matrix(.00784 0 0 -.00784 -.672 32.672)"/><path d="M1486.17 2423.35c-126.89 65.19-265.33 143.57-415.56 221.43l-233.95-364.37c-2.91-6.56-1.992-14.33 2.461-21.63 4.453-7.37 12.09-13.65 21.113-17.41l998.946-454.06c4.55-1.82 10.16-.57 15.62 2.91 5.49 3.48 10.86 9.13 14.79 16.21l232.46 328.41c-70.57 38.7-147.91 81.01-231.93 129.02-123.48 41.78-257.01 81.34-403.95 159.49" clip-path="url(#l)" style="fill:url(#m);fill-opacity:1;fill-rule:nonzero;stroke:none;stroke-width:17.0024" transform="matrix(.00784 0 0 -.00784 -.672 32.672)"/><path d="M1873.16 1813 871.152 2266.02l232.678 361.87c-19.47 9.93-39.06 19.86-58.93 29.68-2.91 1.31-5.7 2.34-8.67 3.66l-234.609-366.38c-5.781-13.01-3.711-28.65 5.469-43.38 9.199-14.68 24.609-27.28 42.754-34.94l995.686-455.02c9.08-3.65 20.21-1.14 30.93 5.94 10.81 7.07 21.35 18.54 29.18 32.7l231.47 326.64c-9.92 5.42-20.2 10.85-30.47 16.33z" clip-path="url(#n)" style="fill:url(#o);fill-opacity:1;fill-rule:nonzero;stroke:none;stroke-width:17.0024" transform="matrix(.00784 0 0 -.00784 -.672 32.672)"/><path d="M2777.21 2398.97c135.23 52.64 284 116.29 443.38 176.92l140.89-376.25c1.31-6.57-1.27-14.05-7.14-20.84-5.88-6.74-14.61-12.33-24.09-15.35l-1063.2-391.55c-4.86-1.66-9.94.05-14.28 4.05-4.39 4.06-8.04 10.39-10.04 18.16l-138.26 367.11c76.66 34.47 160.57 71.76 252.13 113.89 127.13 31.33 263.05 59.02 420.61 123.86" clip-path="url(#p)" style="fill:url(#q);fill-opacity:1;fill-rule:nonzero;stroke:none;stroke-width:17.0024" transform="matrix(.00784 0 0 -.00784 -.672 32.672)"/><path d="m2260.14 1799.99 1065.25 388.34-139.96 374.6c20.55 7.59 41.27 15.24 62.17 22.71 3.08.92 5.99 1.66 9.02 2.63l141.45-377.33c2.67-13.13-2.8-28.09-14.85-41.67-12.05-13.65-29.51-24.66-48.57-30.82l-1061.1-394.81c-9.59-3.37-19.64.06-28.14 8.16-8.57 8.23-15.76 21.07-19.69 36.66l-137.63 365.56c10.89 4.85 21.85 9.71 33.04 14.62z" clip-path="url(#r)" style="fill:url(#s);fill-opacity:1;fill-rule:nonzero;stroke:none;stroke-width:17.0024" transform="matrix(.00784 0 0 -.00784 -.672 32.672)"/><path d="M2019.92 2997.74c39.61 17.47 78.15 34.99 115.65 52.23l-428.36 359.86c-3.71 4.35-9.3 7.31-15.41 8.69-6.12 1.37-12.74 1.02-18.44-1.27L596.387 2989.07c-8.555-3.43-15.41-8.28-19.004-13.65-3.594-5.36-3.653-10.68-.176-14.85l463.923-384.34c367.82 159.03 694.05 298.09 978.79 421.51" clip-path="url(#t)" style="fill:url(#u);fill-opacity:1;fill-rule:nonzero;stroke:none;stroke-width:17.0024" transform="matrix(.00784 0 0 -.00784 -.672 32.672)"/><path d="m1072.3 2589.53-462.945 383.72 1077.185 428.31 429.4-360.55c13.12 6.05 26.21 11.88 39.16 17.86L1727.6 3418c-7.09 8.28-18.05 14.61-30.55 17.42-12.5 2.85-25.62 1.99-36.6-2.35L583.613 3004.93c-17.011-6.73-30.781-16.6-38.144-27.34-7.422-10.79-7.637-21.52-.684-29.86l465.015-385.04c20.96 8.97 41.78 17.99 62.5 26.84" clip-path="url(#v)" style="fill:url(#w);fill-opacity:1;fill-rule:nonzero;stroke:none;stroke-width:17.0024" transform="matrix(.00784 0 0 -.00784 -.672 32.672)"/><path d="M2232.05 2997.74c-39.57 17.47-78.09 34.99-115.66 52.23l428.49 359.86c3.6 4.35 9.24 7.31 15.35 8.69 6.12 1.37 12.68 1.02 18.44-1.27l1077.03-428.18c8.44-3.43 15.3-8.28 18.95-13.65 3.59-5.36 3.71-10.68.17-14.85l-463.94-384.34c-367.79 159.03-694.02 298.09-978.83 421.51" clip-path="url(#x)" style="fill:url(#y);fill-opacity:1;fill-rule:nonzero;stroke:none;stroke-width:17.0024" transform="matrix(.00784 0 0 -.00784 -.672 32.672)"/><path d="m3179.73 2589.53 462.95 383.72-1077.25 428.31-429.28-360.55c-13.24 6.05-26.27 11.88-39.22 17.86l427.5 359.13c7.09 8.28 18.05 14.61 30.55 17.42 12.5 2.85 25.63 1.99 36.58-2.35l1076.8-428.14c17.07-6.73 30.84-16.6 38.2-27.34 7.37-10.79 7.64-21.52.74-29.86l-465.01-385.04c-20.96 8.97-41.84 17.99-62.56 26.84" clip-path="url(#z)" style="fill:url(#A);fill-opacity:1;fill-rule:nonzero;stroke:none;stroke-width:17.0024" transform="matrix(.00784 0 0 -.00784 -.672 32.672)"/><path d="M249.895 253.028c1.058.006 2.125-.153 2.94-.478l120.062-49.113c.777-.326 1.211-.765 1.211-1.219 0-.452-.434-.894-1.211-1.212L252.836 152.62c-.816-.325-1.883-.478-2.941-.465-1.059.013-2.124.185-2.94.523L126.9 201.785c-.78.313-1.219.733-1.219 1.173s.44.862 1.219 1.168l120.054 48.392c.817.338 1.882.504 2.94.51" style="fill:#ccc;fill-opacity:1;fill-rule:nonzero;stroke:none;stroke-width:1.90046" transform="translate(-1.488 -1.905)scale(.07016)"/><path d="M252.874 152.007c-.785.07-1.533.237-2.147.49L130.677 201.6c-.78.313-1.214.727-1.214 1.167s.435.861 1.214 1.167l120.05 48.403c.614.254 1.362.402 2.147.467z" style="fill:#999;fill-opacity:1;fill-rule:nonzero;stroke:none;stroke-width:1.90047" transform="translate(-1.488 -1.905)scale(.07016)"/><path d="M2131.58 3062.99c-19.69-.23-38.59-3.6-52.52-9.42L1004.9 2614.3c-13.884-5.65-21.697-13.19-21.697-21.01 0-7.81 7.813-15.35 21.697-20.83l1074.16-432.99c14.49-5.94 33.52-9.02 52.52-9.08 19.01-.11 38.01 2.68 52.52 8.56l1074.22 439.39c13.87 5.82 21.7 13.64 21.7 21.8 0 8.17-7.83 15.99-21.7 21.69L2184.1 3054.77c-13.87 5.48-32.77 8.45-52.52 8.22m0-30.14 1074.16-432.88-1074.16-439.43-1074.12 432.98z" clip-path="url(#B)" style="fill:#666;fill-opacity:1;fill-rule:nonzero;stroke:none;stroke-width:17.0024" transform="matrix(.00784 0 0 -.00784 -.672 32.672)"/></g></svg>