<svg xmlns="http://www.w3.org/2000/svg" width="32" height="32" viewBox="0 0 32 32"><path d="M24.396 1.035c-3.857-.026-6.387 3.608-5.359 6.858.183.58.448.929.695 1.28-.032.041-.02.012-.054.057-.873 1.17-.873 2.281-.862 2.678a9 9 0 0 1-.935.541c-.776.394-1.689.77-1.996.887h-.002c-.246.094-.395.224-.588.346-.488-.183-1.046-.394-1.426-.58-.496-.244-1.078-.63-1.578-.973 0-.028.003.015.004-.016.011-.917-.215-1.817-.729-2.517-.113-.155-.3-.2-.43-.33.962-1.188 1.393-2.73.98-4.239-.552-2.015-2.517-3.53-4.917-3.51-3.634.032-6.081 4.048-4.258 7.16v.003c.222.377.466.576.707.824-.408.514-.83 1.047-.937 1.59-.145.737-.09 1.334-.09 1.931 0 1.52-.122 3.58.022 5.278.092 1.1.668 1.935 1.2 2.484 0 .058-.007.004-.009.197-.013 1.62-.15 4.908.01 6.5.19 1.904 1.903 2.997 3.533 3.008.815.006 1.705-.276 2.373-.943.668-.668 1.026-1.663 1.021-2.754v-.002c-.002-.44-.033-1.924-.039-3.377a68 68 0 0 1 .018-1.965c.004-.15.01-.235.016-.348.107-.081.197-.138.338-.277.908-.897 1.18-2.1 1.189-2.97l.002-.149c.052.023.092.049.146.072 1.31.567 1.897.82 2.76.672.286.197.648.418 1.104.49.97.155 1.777-.201 2.164-.351.11-.043.263-.116.388-.17.008.1-.001.145.012.252.102.82.598 1.78 1.442 2.574.002.623-.006 1.262-.006 1.916 0 .936-.11 2.042-.075 3.168s.199 2.386 1.116 3.398v.002c.611.674 1.285.87 1.775 1.09a1 1 0 0 0 .149.057c.42.136.417.085.572.098q.232.02.496.025c.174.004.35.003.537-.01.093-.006.187-.016.313-.039.125-.023.258-.003.62-.242l.073-.05c-.182.136 1.468-.474 2.115-2.07v-.001c.268-.664.273-1.187.305-1.858.032-.67.03-1.424.017-2.185-.022-1.442-.06-2.877-.025-3.557.112-.095.184-.124.365-.379v-.002c.754-1.063.86-2.254.897-3.363.036-1.11-.047-2.193-.047-2.98 0-.801.113-2.09-.092-3.233-.122-.686-.446-1.114-.73-1.508.057-.07.03-.02.09-.097a4.7 4.7 0 0 0 .747-1.414c1.106-3.443-1.538-6.952-5.126-6.977z" style="fill:#f2f2f2;fill-opacity:1;fill-rule:evenodd;stroke:none;stroke-width:.0143628"/><path d="M16.616 17.638c.604.097.942-.088 1.416-.273.502-.194 2.062-.952 2.253-.92.222 1.651-.38 2.771 1.245 4.073.307.245.301.212.303.746.004.67-.005 1.345-.005 2.016 0 2.068-.422 4.395.669 5.6.335.37.732.491 1.365.752.218.057 1.096.088 1.24-.007.404-.303 1.234-.444 1.645-1.459.45-1.109.067-5.719.192-7.37.04-.524.355-.518.628-.904.91-1.28.586-3.757.586-5.511 0-.88.07-2.192-.07-2.978-.211-1.184-1-1.465-1.133-1.897.129-.193.412-.378.77-.842.222-.287.397-.595.518-.974.829-2.579-1.06-5.08-3.767-5.098-3.004-.021-4.72 2.642-3.979 4.984.372 1.178 1.005 1.48 1.181 1.853-.232.326-.51.443-.76.779-.719.962-.508 1.79-.613 2.378-.125.697-3.107 1.9-3.835 2.178-.848.362-1.496 1.952.15 2.874" style="fill:#f60;fill-opacity:1;fill-rule:evenodd;stroke:none;stroke-width:.0143628"/><path d="M15.344 15.302c-.642-.206-1.51-.54-2.025-.792-.674-.332-1.38-.803-1.925-1.18-.526-.365-.465-.37-.455-1.117.017-1.415-.593-2.086-1.854-2.694.25-.306.6-.44.845-.671.865-.818 1.213-2.12.883-3.323-.366-1.34-1.726-2.465-3.518-2.45C4.69 3.097 3 5.905 4.267 8.068c.526.899 1.081 1.084 1.512 1.438-.15.288-.548.434-.752.617-1.012.904-.882 1.729-.882 3.02 0 1.588-.114 3.638.015 5.156.074.887.427 1.32.914 1.765.364.333.287.479.283 1.049-.013 1.667-.122 5.093.002 6.345.208 2.074 4.072 2.669 4.057-.541-.004-.769-.121-6.1.072-6.422.08-.131.45-.34.688-.575 1.255-1.24.51-2.543.801-4.35.252-.042.308.057.538.198q.254.158.508.29c.378.196.68.347 1.075.517 1.987 1.11 2.957-.124 2.246-1.273" style="fill:navy;fill-opacity:1;fill-rule:evenodd;stroke:none;stroke-width:.0143628"/><path d="M24.39 28.695c-1.804 0-1.546-1.936-1.546-2.707V21.81c0-.575.194-1.471-.288-1.807-.544-.38-.768-.425-1.051-1.086-.368-.861.096-3.438-.405-3.877-.528-.313-3.123 1.65-4.162 1.65-.6 0-.785-.733-.088-1 1.554-.592 2.443-.939 3.793-1.947.506-.378.69-.372.68-1.219-.007-.608.026-1.094.306-1.558.598-.994 1.39-.858 1.621-1.239.396-.654-.77-.806-1.23-1.438-.293-.4-.527-.682-.624-1.268-.603-3.645 4.626-4.765 5.85-1.558.4 1.047.15 2.076-.503 2.808-.835.934-2.263 1.107-.815 1.857 1.003.52 1.212 1.231 1.21 2.55q-.002 1.858 0 3.715c0 1.24.186 2.355-.593 3.141-.484.49-.627.344-.62 1.268l.003 5.573c0 .744.093 2.32-1.538 2.32" style="fill:#f9f9f9;fill-opacity:1;fill-rule:evenodd;stroke:none;stroke-width:.0143628"/></svg>