<svg xmlns="http://www.w3.org/2000/svg" width="32" height="32" viewBox="0 0 32 32"><ellipse cx="16" cy="16" rx="14.571" ry="15.106" style="fill:#f2f2f2;stroke-width:1.8;stroke-linecap:round;stroke-linejoin:round"/><path d="M25.714 16c0 5.446-4.35 9.86-9.714 9.86S6.286 21.446 6.286 16 10.635 6.14 16 6.14s9.714 4.415 9.714 9.86" style="fill:#d4aa00;fill-opacity:1;fill-rule:nonzero;stroke:none;stroke-width:.00568772"/><path d="M19 16.444q-.537-.798-2.604-2.044-.72-.432-.874-.738-.162-.306-.162-.911 0-.471.144-.702a.47.47 0 0 1 .422-.232q.258 0 .368.172.11.17.11.799v.895h2.875v-.478q0-1.44-.276-2.04t-1.124-.997a4 4 0 0 0-.975-.303V8.413h-1.842v1.408q-.625.084-1.12.313-.78.363-1.13 1.004-.348.642-.349 2.03 0 .963.247 1.582.246.62.62.97.376.351 1.53 1.127 1.155.769 1.449 1.097.286.329.286 1.395 0 .486-.15.732a.5.5 0 0 1-.46.246q-.31 0-.43-.194t-.121-.873v-1.47h-2.875v.79q0 1.359.272 2.098t1.15 1.216q.486.264 1.081.382v1.32h1.842v-1.281a4 4 0 0 0 1.184-.357q.853-.414 1.15-1.027.3-.611.299-1.902 0-1.777-.537-2.575" style="fill:#fff;fill-opacity:1;fill-rule:nonzero;stroke:none;stroke-width:.00568772"/><path d="M12.639 5.921a10.3 10.3 0 0 1 3.36-.558c1.197 0 2.346.204 3.416.578l.497-1.362A11.7 11.7 0 0 0 16 3.911c-1.35 0-2.648.229-3.859.65zM26.48 16a10.7 10.7 0 0 1-.901 4.322l1.344.505c.635-1.478.987-3.11.987-4.827 0-1.062-.135-2.091-.388-3.072l-1.35.507c.201.821.308 1.68.308 2.565M6.636 11.217a10.6 10.6 0 0 1 4.073-4.4l-.504-1.381a12.07 12.07 0 0 0-4.917 5.275zm14.705-4.37a10.6 10.6 0 0 1 4.118 4.567l1.346-.507a12.07 12.07 0 0 0-4.96-5.442zM5.52 16c0-.96.126-1.891.361-2.777l-1.347-.506A12.3 12.3 0 0 0 4.09 16c0 1.793.385 3.495 1.075 5.026l1.345-.507A10.7 10.7 0 0 1 5.52 16m13.843 10.078c-1.055.363-2.186.56-3.363.56-1.156 0-2.269-.19-3.309-.542l-.497 1.362a11.7 11.7 0 0 0 3.806.63c1.351 0 2.65-.228 3.86-.649zm5.167-3.861.026-.072a10.6 10.6 0 0 1-3.264 3.038l.504 1.38a12.04 12.04 0 0 0 4.099-3.833zm-13.772 2.995a10.6 10.6 0 0 1-3.136-2.82l-1.392.523a12.04 12.04 0 0 0 4.024 3.676z" style="fill:#414042;fill-opacity:1;fill-rule:nonzero;stroke:none;stroke-width:.00568772"/></svg>