<svg xmlns="http://www.w3.org/2000/svg" width="32" height="32" viewBox="0 0 32 32"><path d="M13.068 2.83c-.044 0-.119.002-.2.006-3.451.11-6.23 2.975-6.23 6.459 0 .329.14.613.188.93-.028-.027-.025-.088-.055-.11a1.5 1.5 0 0 0-.755-.295 1 1 0 0 0-.162-.011H4.03c-.257 0-.612.067-.916.308s-.467.61-.513.885a1 1 0 0 0-.016.195v17.407c0 .329.194.836.541 1.093.347.258.67.282.904.282h24.073c.235 0 .555-.025.902-.282.346-.256.543-.763.543-1.093v-1.467c0-.363-.235-.853-.541-1.08a1.46 1.46 0 0 0-.791-.29 1 1 0 0 0-.113-.005h-1.682c.003-.032.047-.067.047-.096V15.117c0-.21-.159-.3-.248-.467a1.17 1.17 0 0 0 .627-1.115l-.444-3.203a1.172 1.172 0 0 0-1.5-.96l-4.123 1.245a1.172 1.172 0 0 0-.392 1.762l-3.243 2.572-1.15.01c2.052-1.078 3.505-3.171 3.514-5.643v-.023h-.002v-.002l-.004-.14V9.15c0-.044-.002-.095-.004-.144v-.002l-.002-.084c-.067-.929-.42-1.936-.42-1.936l-.004-.004a1.17 1.17 0 0 0 .393-.666A4.67 4.67 0 0 0 17.72 3.66a1.17 1.17 0 0 0-1.254.188c-.227-.148-.557-.383-1.117-.596a6.4 6.4 0 0 0-2.276-.422Zm-5.752 9.227a6.44 6.44 0 0 0 2.91 2.955l-1.91.017a1.17 1.17 0 0 0-1 .784Zm0 5.957a1.17 1.17 0 0 0 1.059 1.025l.701-.006c-.117.046-.243.033-.353.115a1.37 1.37 0 0 0-.543 1.07v5.468c0 .033.036.043.039.076h-.903Zm12.702.41c-.008.067-.084.1-.084.168v2.38c-.011-.008-.009-.03-.02-.038a1.45 1.45 0 0 0-.789-.29 1 1 0 0 0-.115-.005h-3.645c-.216 0-.505.084-.777.248v-.668c0-.478-.27-.866-.543-1.07-.15-.112-.319-.111-.48-.157l5.42-.05a1.17 1.17 0 0 0 .742-.274z" style="fill:#f2f2f2;stroke-width:.0126207"/><path d="M18.321 9.27v.02c-.01 2.913-2.361 5.272-5.262 5.272-2.907 0-5.264-2.368-5.264-5.291 0-2.87 2.27-5.204 5.102-5.29q.077-.004.156-.003h.006c.626 0 1.26.117 1.859.345.438.166 1.244.672 1.244.672l-3.244 4.181 5.024-1.872s.327 1.066.37 1.675v.002c.004.05.005.095.005.145v.002q.005.071.004.142" style="fill:green;fill-opacity:1;fill-rule:nonzero;stroke:none;stroke-width:.0126207"/><path d="M4.016 10.956h1.822q.29.041.291.217v15.736h21.958q.273.027.274.204v1.466q0 .204-.274.204H4.016q-.274 0-.274-.204V11.173q.037-.217.274-.217" style="fill:#1a1a1a;fill-opacity:1;fill-rule:nonzero;stroke:none;stroke-width:.00500214"/><path d="m25.228 10.467.444 3.204-1.227-.536-5.489 4.61-10.608.098-.037-1.666 9.231-.083 4.842-3.84-1.278-.54z" style="fill:#80a;fill-opacity:1;fill-rule:nonzero;stroke:none;stroke-width:.00500214"/><path d="M9.584 20.01h3.569c.136 0 .247.082.247.184v5.463c0 .102-.11.184-.247.184l-3.569.005c-.137 0-.248-.083-.248-.185v-5.467c0-.102.111-.184.248-.184" style="fill:#a00;fill-opacity:1;fill-rule:nonzero;stroke:none;stroke-width:.00500214"/><path d="M15.35 21.786h3.644q.273.027.274.203v3.653q0 .204-.274.204H15.35q-.273 0-.273-.204v-3.653q.036-.203.273-.203" style="fill:#ffd42a;fill-opacity:1;fill-rule:nonzero;stroke:none;stroke-width:.00500214"/><path d="M25.107 15.041c.063-.05.175-.016.175.051v10.55q0 .204-.274.204h-3.645c-.15 0-.273-.092-.273-.204v-7.075c0-.209.106-.41.297-.562z" style="fill:#00f;fill-opacity:1;fill-rule:nonzero;stroke:none;stroke-width:.00500214"/><path d="M6.324 16.483a3.67 3.532 0 0 1-.82 2.226l-2.85-2.226Z" style="fill:#a05a2c;stroke-width:1.8;stroke-linecap:round;stroke-linejoin:round" transform="rotate(-53.518)"/></svg>